<?xml version="1.0" standalone="no"?>
<!DOCTYPE svg PUBLIC "-//W3C//DTD SVG 1.1//EN" "http://www.w3.org/Graphics/SVG/1.1/DTD/svg11.dtd" >
<svg xmlns="http://www.w3.org/2000/svg" xmlns:xlink="http://www.w3.org/1999/xlink" version="1.1">
<metadata>
Created by FontForge 20170910 at Fri Oct 26 17:39:33 2007
 By Jimmy Wärting
Copyright (c) Christian Schwartz, 2007. All rights reserved.
</metadata>
<defs>
<font id="StagSans-Thin" horiz-adv-x="410" >
  <font-face 
    font-family="Stag Sans Thin"
    font-weight="250"
    font-stretch="normal"
    units-per-em="1000"
    panose-1="2 11 4 3 4 0 0 2 0 4"
    ascent="800"
    descent="-200"
    x-height="520"
    cap-height="700"
    bbox="-165 -173 971 902"
    underline-thickness="50"
    underline-position="-50"
    stemh="17"
    stemv="20"
    unicode-range="U+0020-FB02"
  />
<missing-glyph horiz-adv-x="500" 
 />
    <glyph glyph-name="f_f" unicode="ff" horiz-adv-x="502" 
d="M18 504v16h70v49c0 94 48 125 108 125c24 0 45 -2 57 -5v-13h-57c-52 0 -89 -24 -89 -107v-49h225v55c0 94 48 125 108 125c24 0 45 -2 57 -5v-13h-57c-52 0 -89 -24 -89 -107v-55h133v-16h-133v-504h-19v504h-225v-504h-19v504h-70z" />
    <glyph glyph-name=".notdef" horiz-adv-x="500" 
 />
    <glyph glyph-name="space" unicode=" " horiz-adv-x="214" 
 />
    <glyph glyph-name="exclam" unicode="!" horiz-adv-x="192" 
d="M88 118l-3 567v15h22v-15l-3 -567h-16zM96 -3c-12 0 -21 9 -21 21s9 21 21 21s21 -9 21 -21s-9 -21 -21 -21z" />
    <glyph glyph-name="quotedbl" unicode="&#x22;" horiz-adv-x="162" 
d="M35 545l-3 122v33h23v-33l-3 -122h-17zM110 545l-3 122v33h23v-33l-3 -122h-17z" />
    <glyph glyph-name="numbersign" unicode="#" horiz-adv-x="450" 
d="M53 432v18h90l37 250h18l-37 -250h152l37 250h18l-37 -250h89v-18h-91l-20 -137h88v-18h-91l-40 -277h-18l40 277h-152l-40 -277h-18l40 277h-88v18h91l20 137h-88zM159 432l-20 -137h152l20 137h-152z" />
    <glyph glyph-name="dollar" unicode="$" horiz-adv-x="491" 
d="M253 764v-61c84 -2 128 -26 176 -61v-17h-14c-37 33 -80 59 -162 61v-313c108 -31 202 -61 202 -184c0 -133 -88 -189 -202 -192v-99h-18v99c-108 1 -160 29 -208 64v18h14c37 -34 89 -64 194 -65v345c-97 28 -190 55 -190 177c0 89 59 164 190 167v61h18zM435 189
c0 112 -84 137 -182 165v-340c105 3 182 52 182 175zM64 537c0 -110 78 -133 171 -159v308c-121 -3 -171 -70 -171 -149z" />
    <glyph glyph-name="percent" unicode="%" horiz-adv-x="681" 
d="M183 382c74 0 125 55 125 152s-51 153 -125 153s-125 -56 -125 -153s51 -152 125 -152zM183 366c-78 0 -145 57 -145 168s67 169 145 169s145 -58 145 -169s-67 -168 -145 -168zM597 729l-492 -763h-21l492 763h21zM498 13c74 0 125 55 125 152s-51 153 -125 153
s-125 -56 -125 -153s51 -152 125 -152zM498 -3c-78 0 -145 57 -145 168s67 169 145 169s145 -58 145 -169s-67 -168 -145 -168z" />
    <glyph glyph-name="ampersand" unicode="&#x26;" horiz-adv-x="630" 
d="M576 0l-93 103c-47 -64 -113 -106 -210 -106c-150 0 -228 93 -228 199c0 112 74 186 165 216c-30 39 -59 77 -59 140c0 88 66 151 165 151c62 0 104 -25 138 -59v-17h-15c-31 37 -66 59 -122 59c-89 0 -146 -55 -146 -134c0 -76 39 -114 94 -176l217 -244
c39 62 67 151 79 241h17v-11c-12 -81 -40 -175 -84 -243l99 -111v-8h-17zM273 14c91 0 153 39 199 102l-251 282c-90 -30 -156 -92 -156 -202c0 -94 61 -182 208 -182z" />
    <glyph glyph-name="quotesingle" unicode="'" horiz-adv-x="87" 
d="M35 545l-3 122v33h23v-33l-3 -122h-17z" />
    <glyph glyph-name="parenleft" unicode="(" horiz-adv-x="284" 
d="M257 741v-12c-70 -42 -185 -134 -185 -378s115 -346 185 -388v-12h-11c-71 39 -194 152 -194 400s123 351 194 390h11z" />
    <glyph glyph-name="parenright" unicode=")" horiz-adv-x="284" 
d="M27 729v12h11c71 -39 194 -152 194 -400s-123 -351 -194 -390h-11v12c70 42 185 134 185 378s-115 346 -185 388z" />
    <glyph glyph-name="asterisk" unicode="*" horiz-adv-x="356" 
d="M298 575l-108 -34l71 -91l17 -23l-16 -11l-17 22l-67 96l-67 -96l-17 -22l-16 11l17 23l71 91l-108 34l-27 9l6 19l27 -9l107 -41l-3 118v29h20v-29l-3 -118l107 41l27 9l6 -19z" />
    <glyph glyph-name="plus" unicode="+" horiz-adv-x="456" 
d="M415 337h-177v-188h-19v188h-178v17h178v188h19v-188h177v-17z" />
    <glyph glyph-name="comma" unicode="," horiz-adv-x="110" 
d="M21 -68c20 8 36 23 36 49c0 9 -7 15 -12 18c-7 5 -11 11 -11 20c0 11 9 20 20 20c13 0 25 -9 25 -36c0 -57 -27 -78 -58 -86v15z" />
    <glyph glyph-name="hyphen" unicode="-" horiz-adv-x="211" 
d="M25 289v17h161v-17h-161z" />
    <glyph glyph-name="period" unicode="." horiz-adv-x="110" 
d="M55 -3c-12 0 -21 9 -21 21s9 21 21 21s21 -9 21 -21s-9 -21 -21 -21z" />
    <glyph glyph-name="slash" unicode="/" horiz-adv-x="292" 
d="M16 -49v7l240 783h17v-7l-240 -783h-17z" />
    <glyph glyph-name="zero" unicode="0" horiz-adv-x="639" 
d="M320 -3c-151 0 -276 118 -276 353s125 353 276 353s275 -118 275 -353s-124 -353 -275 -353zM320 14c146 0 255 113 255 336c0 222 -109 336 -255 336c-147 0 -256 -114 -256 -336c0 -223 109 -336 256 -336z" />
    <glyph glyph-name="one" unicode="1" horiz-adv-x="277" 
d="M173 0h-20v678l-128 -72h-12v12l146 82h14v-700z" />
    <glyph glyph-name="two" unicode="2" horiz-adv-x="497" 
d="M449 17v-17h-420v17l216 218c103 104 181 192 181 287c0 100 -55 164 -167 164c-94 0 -147 -41 -185 -81h-14v15c43 43 108 83 199 83c126 0 187 -74 187 -181c0 -103 -86 -195 -189 -299l-204 -206h396z" />
    <glyph glyph-name="three" unicode="3" horiz-adv-x="487" 
d="M223 -3c-87 0 -153 30 -197 70v17h15c35 -37 96 -70 182 -70c138 0 202 70 202 185c0 118 -92 159 -188 159h-67v17h59c103 0 177 51 177 156c0 101 -57 155 -173 155c-84 0 -137 -29 -171 -62h-13v16c45 38 104 63 184 63c125 0 193 -64 193 -172
c0 -90 -56 -150 -134 -163v-1c88 -11 153 -70 153 -168c0 -126 -71 -202 -222 -202z" />
    <glyph glyph-name="four" unicode="4" horiz-adv-x="532" 
d="M414 0h-20v193h-371v20l376 487h15v-490h94v-17h-94v-193zM46 211v-1h348v452h-1z" />
    <glyph glyph-name="five" unicode="5" horiz-adv-x="506" 
d="M463 240c0 -147 -102 -243 -247 -243c-89 0 -149 33 -188 67v16h14c33 -34 86 -66 174 -66c138 0 227 87 227 226s-85 195 -187 195c-88 0 -148 -42 -178 -82h-20v347h372v-17h-353v-307h2c24 30 86 76 177 76c108 0 207 -64 207 -212z" />
    <glyph glyph-name="six" unicode="6" horiz-adv-x="565" 
d="M298 -3c-137 0 -254 97 -254 338c0 244 139 368 310 368c65 0 107 -14 137 -31v-17h-13c-20 17 -62 32 -124 32c-163 0 -290 -117 -290 -352c0 -13 0 -26 1 -38c51 71 144 122 240 122c115 0 220 -56 220 -199c0 -144 -97 -223 -227 -223zM305 403
c-95 0 -187 -53 -239 -128c17 -186 114 -260 232 -260c120 0 207 70 207 205c0 134 -94 183 -200 183z" />
    <glyph glyph-name="seven" unicode="7" horiz-adv-x="494" 
d="M128 0v15l325 667v1h-418v17h436v-20l-326 -680h-17z" />
    <glyph glyph-name="eight" unicode="8" horiz-adv-x="548" 
d="M273 -3c-156 0 -234 81 -234 191c0 94 63 171 171 186v2c-82 16 -137 78 -137 158c0 97 74 169 200 169s200 -72 200 -169c0 -80 -55 -141 -136 -158v-2c108 -16 172 -92 172 -186c0 -110 -80 -191 -236 -191zM273 14c144 0 215 71 215 174s-74 178 -215 178
s-214 -75 -214 -178s70 -174 214 -174zM273 383c115 0 181 61 181 151s-66 152 -181 152s-180 -62 -180 -152s65 -151 180 -151z" />
    <glyph glyph-name="nine" unicode="9" horiz-adv-x="561" 
d="M210 -3c-68 0 -113 13 -143 30v17h13c20 -17 65 -31 130 -31c170 0 287 117 287 352c0 13 -1 25 -1 38c-51 -72 -144 -122 -240 -122c-115 0 -220 59 -220 202c0 142 99 220 229 220c137 0 252 -97 252 -338c0 -244 -126 -368 -307 -368zM256 297c94 0 186 53 238 128
c-16 186 -111 260 -229 260c-120 0 -209 -69 -209 -202c0 -134 94 -186 200 -186z" />
    <glyph glyph-name="colon" unicode=":" horiz-adv-x="118" 
d="M59 317c-12 0 -21 9 -21 21s9 21 21 21s21 -9 21 -21s-9 -21 -21 -21zM59 -3c-12 0 -21 9 -21 21s9 21 21 21s21 -9 21 -21s-9 -21 -21 -21z" />
    <glyph glyph-name="semicolon" unicode=";" horiz-adv-x="118" 
d="M59 317c-12 0 -21 9 -21 21s9 21 21 21s21 -9 21 -21s-9 -21 -21 -21zM25 -68c20 8 36 23 36 49c0 9 -7 15 -12 18c-7 5 -11 11 -11 20c0 11 9 20 20 20c13 0 25 -9 25 -36c0 -57 -27 -78 -58 -86v15z" />
    <glyph glyph-name="less" unicode="&#x3c;" horiz-adv-x="456" 
d="M36 321v17l368 198h12v-13l-361 -193v-1l361 -194v-13h-12z" />
    <glyph glyph-name="equal" unicode="=" horiz-adv-x="477" 
d="M442 382h-407v15h407v-15zM442 232h-407v15h407v-15z" />
    <glyph glyph-name="greater" unicode="&#x3e;" horiz-adv-x="456" 
d="M420 337v-17l-368 -198h-12v13l361 193v1l-361 194v13h12z" />
    <glyph glyph-name="question" unicode="?" horiz-adv-x="431" 
d="M159 118c-15 122 19 162 81 230c63 63 132 113 132 200c0 93 -50 139 -148 139c-87 0 -139 -32 -165 -64h-14v16c31 28 84 64 179 64c103 0 168 -46 168 -155c0 -96 -73 -145 -140 -214c-53 -55 -88 -94 -75 -216h-18zM171 -3c-12 0 -21 9 -21 21s9 21 21 21
s21 -9 21 -21s-9 -21 -21 -21z" />
    <glyph glyph-name="at" unicode="@" horiz-adv-x="861" 
d="M481 469c54 0 84 -16 104 -32c5 21 13 32 20 32h6l-66 -275c-15 -64 -1 -104 64 -104c84 0 192 64 192 245c0 196 -147 301 -344 301c-184 0 -397 -136 -397 -389c0 -247 165 -344 362 -344c103 0 201 29 256 74h13v-15c-63 -45 -162 -75 -269 -75
c-202 0 -381 100 -381 360c0 264 222 405 416 405c202 0 363 -110 363 -317c0 -185 -115 -261 -211 -261c-73 0 -95 42 -85 103c-42 -48 -98 -106 -176 -106c-63 0 -110 42 -110 122c0 129 106 276 243 276zM349 87c76 0 129 59 179 113l53 221c-25 21 -54 32 -100 32
c-123 0 -224 -133 -224 -260c0 -75 39 -106 92 -106z" />
    <glyph glyph-name="A" unicode="A" horiz-adv-x="594" 
d="M36 0v14l249 686h27l246 -686v-14h-15l-85 235h-323l-85 -235h-14zM297 681l-156 -429h311l-153 429h-2z" />
    <glyph glyph-name="B" unicode="B" horiz-adv-x="578" 
d="M97 0v700h185c110 0 213 -35 213 -169c0 -100 -61 -147 -144 -161v-1c99 -8 182 -58 182 -181c0 -136 -102 -188 -233 -188h-203zM117 18h183c118 0 213 44 213 170s-90 171 -228 171h-168v-341zM117 377h162c104 0 196 37 196 154c0 123 -92 151 -193 151h-165v-305z
" />
    <glyph glyph-name="C" unicode="C" horiz-adv-x="623" 
d="M349 -3c-169 0 -292 124 -292 356c0 233 141 350 298 350c114 0 163 -36 214 -82v-17h-14c-39 47 -94 82 -199 82c-153 0 -279 -111 -279 -332s109 -340 272 -340c111 0 178 41 219 95h14v-17c-50 -51 -113 -95 -233 -95z" />
    <glyph glyph-name="D" unicode="D" horiz-adv-x="670" 
d="M97 0v700h176c230 0 347 -98 347 -350s-117 -350 -347 -350h-176zM117 18h156c221 0 327 91 327 332s-106 332 -327 332h-156v-664z" />
    <glyph glyph-name="E" unicode="E" horiz-adv-x="553" 
d="M97 0v700h404v-17h-384v-311h293v-17h-293v-338h398v-17h-418z" />
    <glyph glyph-name="F" unicode="F" horiz-adv-x="539" 
d="M117 0h-20v700h401v-17h-381v-331h280v-17h-280v-335z" />
    <glyph glyph-name="G" unicode="G" horiz-adv-x="678" 
d="M369 -3c-193 0 -319 117 -319 356c0 240 150 350 319 350c101 0 164 -28 204 -61v-17h-14c-36 36 -99 62 -190 62c-166 0 -297 -105 -297 -333s111 -339 297 -339c106 0 161 24 203 50v251h-167v17h188v-278c-41 -24 -105 -58 -224 -58z" />
    <glyph glyph-name="H" unicode="H" horiz-adv-x="687" 
d="M117 0h-20v700h20v-329h453v329h20v-700h-20v354h-453v-354z" />
    <glyph glyph-name="I" unicode="I" horiz-adv-x="218" 
d="M119 0h-20v700h20v-700z" />
    <glyph glyph-name="J" unicode="J" horiz-adv-x="400" 
d="M149 -4c-60 0 -101 17 -129 37v18h12c20 -20 53 -38 117 -38c96 0 138 49 138 136v551h20v-551c0 -97 -50 -153 -158 -153z" />
    <glyph glyph-name="K" unicode="K" horiz-adv-x="607" 
d="M97 0v700h20v-435l407 435h12v-12l-259 -277l283 -398v-13h-14l-282 397l-147 -157v-240h-20z" />
    <glyph glyph-name="L" unicode="L" horiz-adv-x="546" 
d="M507 0h-410v700h20v-683h390v-17z" />
    <glyph glyph-name="M" unicode="M" horiz-adv-x="802" 
d="M97 0v700h40l264 -672h1l264 672h39v-700h-20v685h-5l-270 -685h-19l-269 685h-5v-685h-20z" />
    <glyph glyph-name="N" unicode="N" horiz-adv-x="680" 
d="M97 0v700h30l436 -666h1v666h19v-700h-20l-446 681h-1v-681h-19z" />
    <glyph glyph-name="O" unicode="O" horiz-adv-x="713" 
d="M357 -3c-168 0 -307 123 -307 353s139 353 307 353s306 -123 306 -353s-138 -353 -306 -353zM357 14c160 0 286 117 286 336c0 218 -126 336 -286 336c-161 0 -287 -118 -287 -336c0 -219 126 -336 287 -336z" />
    <glyph glyph-name="P" unicode="P" horiz-adv-x="545" 
d="M97 0v700h166c140 0 238 -46 238 -194s-91 -197 -238 -197h-146v-309h-20zM117 682v-355h146c136 0 218 38 218 179c0 139 -91 176 -218 176h-146z" />
    <glyph glyph-name="Q" unicode="Q" horiz-adv-x="721" 
d="M652 -80l-353 80c-140 32 -249 146 -249 350c0 230 139 353 307 353s306 -123 306 -353c0 -214 -119 -341 -285 -351v-2l290 -60v-17h-16zM359 14c160 0 284 117 284 336c0 218 -126 336 -286 336c-161 0 -287 -118 -287 -336c0 -219 128 -336 289 -336z" />
    <glyph glyph-name="R" unicode="R" horiz-adv-x="592" 
d="M525 0l-181 339c-24 -3 -50 -5 -77 -5h-150v-334h-20v700h170c132 0 230 -42 230 -184c0 -105 -50 -154 -132 -173l176 -330v-13h-16zM117 682v-330h150c128 0 210 29 210 164c0 133 -91 166 -210 166h-150z" />
    <glyph glyph-name="S" unicode="S" horiz-adv-x="511" 
d="M245 -3c-114 0 -169 31 -218 64v18h14c38 -33 92 -65 203 -65c114 0 199 48 199 175c0 119 -101 140 -207 170c-97 28 -191 55 -191 177c0 91 63 167 199 167c91 0 138 -24 188 -61v-17h-14c-38 35 -85 61 -174 61c-126 0 -180 -68 -180 -149c0 -113 83 -134 179 -161
c113 -32 220 -60 220 -187c0 -137 -95 -192 -218 -192z" />
    <glyph glyph-name="T" unicode="T" horiz-adv-x="554" 
d="M287 0h-20v683h-241v17h502v-17h-241v-683z" />
    <glyph glyph-name="U" unicode="U" horiz-adv-x="678" 
d="M342 14c119 0 224 43 224 207v479h20v-478c0 -174 -117 -225 -245 -225s-249 51 -249 225v478h20v-479c0 -160 108 -207 230 -207z" />
    <glyph glyph-name="V" unicode="V" horiz-adv-x="595" 
d="M288 0l-254 686v14h15l248 -671h2l247 671h15v-14l-254 -686h-19z" />
    <glyph glyph-name="W" unicode="W" horiz-adv-x="888" 
d="M228 0l-191 688v12h17l183 -659h3l195 659h18l195 -659h3l182 659h18v-12l-192 -688h-20l-195 662h-1l-195 -662h-20z" />
    <glyph glyph-name="X" unicode="X" horiz-adv-x="573" 
d="M43 0v13l233 349l-215 325v13h14l213 -324l212 324h12v-13l-213 -327l230 -347v-13h-13l-230 346l-230 -346h-13z" />
    <glyph glyph-name="Y" unicode="Y" horiz-adv-x="539" 
d="M279 0h-20v299l-229 388v13h14l225 -383h1l226 383h13v-13l-230 -388v-299z" />
    <glyph glyph-name="Z" unicode="Z" horiz-adv-x="592" 
d="M51 0v18l468 664v1h-441v17h463v-19l-468 -663v-1h453v-17h-475z" />
    <glyph glyph-name="bracketleft" unicode="[" horiz-adv-x="268" 
d="M87 -49v790h150v-16h-131v-758h131v-16h-150z" />
    <glyph glyph-name="backslash" unicode="\" horiz-adv-x="292" 
d="M276 -42v-7h-17l-240 783v7h17z" />
    <glyph glyph-name="bracketright" unicode="]" horiz-adv-x="268" 
d="M181 741v-790h-150v16h131v758h-131v16h150z" />
    <glyph glyph-name="asciicircum" unicode="^" horiz-adv-x="379" 
d="M31 473v10l149 217h21l147 -217v-10h-14l-143 209h-1l-146 -209h-13z" />
    <glyph glyph-name="underscore" unicode="_" horiz-adv-x="305" 
d="M311 -162h-317v16h317v-16z" />
    <glyph glyph-name="grave" unicode="`" 
d="M221 578h-13l-92 111v11h16l89 -113v-9z" />
    <glyph glyph-name="a" unicode="a" horiz-adv-x="489" 
d="M394 23v71c-47 -58 -99 -97 -195 -97c-92 0 -162 42 -162 147c0 102 87 148 209 148c53 0 103 -6 148 -18v111c0 100 -60 124 -140 124c-82 0 -139 -21 -171 -48h-12v18c38 23 98 46 184 46c88 0 158 -29 158 -139v-386h-5c-11 0 -14 5 -14 23zM200 13
c95 0 148 43 194 104v140c-46 12 -95 19 -147 19c-110 0 -191 -39 -191 -131c0 -96 62 -132 144 -132z" />
    <glyph glyph-name="b" unicode="b" horiz-adv-x="549" 
d="M100 677v-273c42 63 114 121 213 121c98 0 197 -58 197 -259c0 -207 -115 -269 -223 -269c-90 0 -148 33 -187 80v-54c0 -19 -3 -23 -12 -23h-7v700h5c11 0 14 -3 14 -23zM312 509c-97 0 -163 -58 -212 -129v-281c46 -56 102 -86 187 -86c95 0 204 51 204 252
c0 195 -95 244 -179 244z" />
    <glyph glyph-name="c" unicode="c" horiz-adv-x="483" 
d="M275 -3c-146 0 -236 102 -236 265c0 164 99 263 237 263c92 0 136 -37 162 -60v-15h-14c-25 30 -64 59 -148 59c-129 0 -218 -92 -218 -247c0 -154 80 -249 217 -249c88 0 138 38 161 71h14v-15c-27 -32 -83 -72 -175 -72z" />
    <glyph glyph-name="d" unicode="d" horiz-adv-x="549" 
d="M468 677v-677h-6c-11 0 -13 6 -13 27v83c-43 -64 -113 -113 -210 -113c-95 0 -200 58 -200 259c0 207 118 269 223 269c89 0 148 -33 187 -81v256h5c11 0 14 -3 14 -23zM240 13c95 0 160 48 209 122v287c-47 57 -102 87 -187 87c-95 0 -204 -51 -204 -252
c0 -195 98 -244 182 -244z" />
    <glyph glyph-name="e" unicode="e" horiz-adv-x="507" 
d="M58 259c0 -153 74 -246 219 -246c87 0 143 28 169 56h14v-13c-35 -30 -94 -59 -183 -59c-153 0 -238 98 -238 262c0 162 95 266 224 266c118 0 206 -70 206 -239c0 -7 -1 -13 -1 -13h-410v-14zM263 510c-113 0 -194 -83 -204 -221h391c-2 158 -78 221 -187 221z" />
    <glyph glyph-name="f" unicode="f" horiz-adv-x="258" 
d="M18 504v16h70v55c0 94 48 125 108 125c24 0 45 -2 57 -5v-13h-57c-52 0 -89 -24 -89 -107v-55h133v-16h-133v-504h-19v504h-70z" />
    <glyph glyph-name="g" unicode="g" horiz-adv-x="549" 
d="M468 520v-524c0 -120 -107 -161 -204 -161c-87 0 -156 24 -194 47v18h12c32 -27 98 -49 180 -49c90 0 187 36 187 146v114c-43 -64 -113 -114 -210 -114c-95 0 -200 58 -200 259c0 207 118 269 223 269c89 0 148 -33 187 -81v50c0 21 3 26 14 26h5zM240 13
c95 0 160 49 209 123v286c-47 57 -102 87 -187 87c-95 0 -204 -51 -204 -252c0 -195 98 -244 182 -244z" />
    <glyph glyph-name="h" unicode="h" horiz-adv-x="551" 
d="M100 677v-261c63 55 148 109 241 109c73 0 134 -26 134 -130v-395h-19v392c0 96 -52 117 -116 117c-87 0 -174 -51 -240 -111v-398h-19v700h5c11 0 14 -3 14 -23z" />
    <glyph glyph-name="i" unicode="i" horiz-adv-x="187" 
d="M103 0h-19v520h5c12 0 14 -3 14 -26v-494zM94 613c-10 0 -18 8 -18 18s8 18 18 18s18 -8 18 -18s-8 -18 -18 -18z" />
    <glyph glyph-name="j" unicode="j" horiz-adv-x="187" 
d="M103 494v-566c0 -57 -30 -91 -89 -91c-11 0 -20 1 -28 2v14h28c48 0 70 28 70 75v592h5c12 0 14 -3 14 -26zM94 613c-10 0 -18 8 -18 18s8 18 18 18s18 -8 18 -18s-8 -18 -18 -18z" />
    <glyph glyph-name="k" unicode="k" horiz-adv-x="453" 
d="M100 677v-484l297 327h14v-12l-194 -210l207 -287v-11h-14l-205 284l-105 -116v-168h-19v700h5c11 0 14 -3 14 -23z" />
    <glyph glyph-name="l" unicode="l" horiz-adv-x="185" 
d="M83 700h5c11 0 14 -3 14 -23v-677h-19v700z" />
    <glyph glyph-name="m" unicode="m" horiz-adv-x="859" 
d="M100 494v-71c57 53 127 102 215 102c60 0 118 -18 126 -102c57 52 127 102 215 102c70 0 127 -25 127 -122v-403h-19v400c0 88 -47 109 -108 109c-85 0 -153 -48 -214 -105v-404h-19v400c0 88 -47 109 -108 109c-86 0 -154 -48 -215 -106v-403h-19v520h5
c12 0 14 -3 14 -26z" />
    <glyph glyph-name="n" unicode="n" horiz-adv-x="551" 
d="M100 494v-78c63 55 148 109 241 109c73 0 134 -26 134 -130v-395h-19v392c0 96 -52 117 -116 117c-87 0 -174 -51 -240 -111v-398h-19v520h5c12 0 14 -3 14 -26z" />
    <glyph glyph-name="o" unicode="o" horiz-adv-x="546" 
d="M273 -3c-143 0 -234 100 -234 264c0 163 91 264 234 264c144 0 234 -101 234 -264c0 -164 -90 -264 -234 -264zM273 13c135 0 215 93 215 248c0 154 -80 248 -215 248c-134 0 -215 -94 -215 -248c0 -155 81 -248 215 -248z" />
    <glyph glyph-name="p" unicode="p" horiz-adv-x="549" 
d="M100 494v-90c42 63 114 121 213 121c95 0 197 -58 197 -259c0 -207 -118 -269 -223 -269c-90 0 -148 33 -187 80v-239h-19v682h5c12 0 14 -3 14 -26zM312 509c-97 0 -163 -58 -212 -129v-281c46 -56 102 -86 187 -86c95 0 204 51 204 252c0 195 -95 244 -179 244z" />
    <glyph glyph-name="q" unicode="q" horiz-adv-x="549" 
d="M449 -162v273c-43 -64 -113 -114 -210 -114c-95 0 -200 58 -200 259c0 207 118 269 223 269c89 0 148 -33 187 -81v50c0 21 3 26 14 26h5v-682h-19zM240 13c95 0 160 49 209 123v286c-47 57 -102 87 -187 87c-95 0 -204 -51 -204 -252c0 -195 98 -244 182 -244z" />
    <glyph glyph-name="r" unicode="r" horiz-adv-x="334" 
d="M100 494v-83c42 57 99 112 179 112c14 0 22 -2 22 -2v-16s-9 1 -22 1c-76 0 -133 -54 -179 -118v-388h-19v520h5c12 0 14 -3 14 -26z" />
    <glyph glyph-name="s" unicode="s" horiz-adv-x="418" 
d="M202 -3c-90 0 -141 30 -168 53v15h14c25 -25 68 -52 154 -52c108 0 160 42 160 133c0 73 -53 99 -155 117c-96 17 -160 41 -160 130c0 83 61 132 165 132c69 0 124 -24 148 -45v-14h-14c-28 24 -67 43 -134 43c-97 0 -146 -45 -146 -116c0 -76 53 -97 149 -114
c103 -18 166 -48 166 -132c0 -99 -56 -150 -179 -150z" />
    <glyph glyph-name="t" unicode="t" horiz-adv-x="291" 
d="M18 504v16h70v146h19v-146h150v-16h-150v-399c0 -65 31 -90 96 -90h68v-14c-15 -2 -45 -4 -72 -4c-74 0 -111 33 -111 107v400h-70z" />
    <glyph glyph-name="u" unicode="u" horiz-adv-x="543" 
d="M443 23v74c-62 -54 -147 -102 -235 -102c-73 0 -132 24 -132 128v397h19v-394c0 -96 50 -115 114 -115c83 0 167 47 234 104v405h19v-520h-5c-11 0 -14 5 -14 23z" />
    <glyph glyph-name="v" unicode="v" horiz-adv-x="474" 
d="M229 0l-204 509v11h16l196 -490h2l195 490h15v-11l-203 -509h-17z" />
    <glyph glyph-name="w" unicode="w" horiz-adv-x="701" 
d="M179 0l-152 509v11h16l145 -487h2l152 487h18l152 -487h2l143 487h17v-11l-152 -509h-19l-152 490h-1l-152 -490h-19z" />
    <glyph glyph-name="x" unicode="x" horiz-adv-x="473" 
d="M42 0v12l184 258l-170 238v12h13l170 -237l162 237h13v-12l-164 -239l181 -257v-12h-13l-180 256l-183 -256h-13z" />
    <glyph glyph-name="y" unicode="y" horiz-adv-x="478" 
d="M151 -162v12l82 190l-207 469v11h16l201 -456h1l194 456h15v-11l-286 -671h-16z" />
    <glyph glyph-name="z" unicode="z" horiz-adv-x="454" 
d="M31 0v15l370 490h-347v15h369v-16l-370 -489h364v-15h-386z" />
    <glyph glyph-name="braceleft" unicode="{" horiz-adv-x="297" 
d="M123 61v225c0 41 -21 61 -66 61h-30v16h30c45 0 66 20 66 61v209c0 75 36 108 103 108h40v-16h-40c-60 0 -84 -29 -84 -92v-209c0 -46 -23 -63 -49 -68v-1c26 -5 49 -23 49 -69v-225c0 -63 24 -94 84 -94h40v-16h-40c-67 0 -103 35 -103 110z" />
    <glyph glyph-name="bar" unicode="|" horiz-adv-x="221" 
d="M120 741v-790h-19v790h19z" />
    <glyph glyph-name="braceright" unicode="}" horiz-adv-x="297" 
d="M174 286v-225c0 -75 -36 -110 -103 -110h-40v16h40c60 0 84 31 84 94v225c0 46 23 64 49 69v1c-26 5 -49 22 -49 68v209c0 63 -24 92 -84 92h-40v16h40c67 0 103 -33 103 -108v-209c0 -41 21 -61 66 -61h30v-16h-30c-45 0 -66 -20 -66 -61z" />
    <glyph glyph-name="asciitilde" unicode="~" horiz-adv-x="312" 
d="M31 246v10c6 30 29 57 63 57c41 0 90 -42 125 -42c22 0 40 14 44 49h18v-10c-7 -32 -29 -56 -63 -56c-41 0 -90 42 -125 42c-22 0 -41 -14 -44 -50h-18z" />
    <glyph glyph-name="exclamdown" unicode="&#xa1;" horiz-adv-x="192" 
d="M104 505l3 -567v-15h-22v15l3 567h16zM96 626c12 0 21 -9 21 -21s-9 -21 -21 -21s-21 9 -21 21s9 21 21 21z" />
    <glyph glyph-name="cent" unicode="&#xa2;" horiz-adv-x="483" 
d="M278 -102h-18v100c-137 6 -221 106 -221 264c0 157 91 255 221 262v59h18v-58c90 -1 137 -37 163 -60v-15h-14c-25 30 -67 58 -149 59v-496c86 1 135 38 158 71h14v-15c-27 -32 -82 -71 -172 -72v-99zM58 262c0 -148 74 -242 202 -249v495c-121 -7 -202 -98 -202 -246z
" />
    <glyph glyph-name="sterling" unicode="&#xa3;" horiz-adv-x="500" 
d="M35 332v17h66c-11 63 -24 122 -24 175c0 106 56 179 198 179c78 0 135 -30 179 -71v-15h-14c-37 39 -89 69 -165 69c-129 0 -178 -63 -178 -163c0 -52 12 -110 24 -174h215v-17h-212c8 -50 16 -103 16 -160c0 -75 -42 -127 -83 -155h405v-17h-431v17c54 37 90 86 90 155
c0 56 -8 110 -17 160h-69z" />
    <glyph glyph-name="yen" unicode="&#xa5;" horiz-adv-x="499" 
d="M430 322h-171v-77h171v-15h-171v-230h-20v230h-171v15h171v77h-171v15h166l-204 350v13h14l205 -353h1l206 353h13v-13l-206 -350h167v-15z" />
    <glyph glyph-name="brokenbar" unicode="&#xa6;" horiz-adv-x="130" 
d="M55 -49v361h20v-361h-20zM55 379v362h20v-362h-20z" />
    <glyph glyph-name="section" unicode="&#xa7;" horiz-adv-x="492" 
d="M229 -114c100 0 153 38 153 124c0 82 -61 102 -173 134c-114 33 -181 71 -181 157c0 78 55 120 162 134c-63 26 -97 66 -97 133c0 79 62 135 164 135c69 0 123 -25 147 -46v-14h-14c-28 24 -66 44 -133 44c-94 1 -145 -48 -145 -119c0 -76 47 -112 152 -137
c103 -25 200 -65 200 -158c0 -88 -62 -131 -152 -145c54 -22 89 -52 89 -117c0 -94 -58 -141 -172 -141c-90 0 -141 30 -168 53v15h14c25 -25 68 -52 154 -52zM260 414l-37 9c-121 -8 -176 -51 -176 -121c0 -75 56 -107 166 -141c26 -8 49 -15 71 -23c98 10 161 52 161 135
c0 80 -79 116 -185 141z" />
    <glyph glyph-name="dieresis" unicode="&#xa8;" 
d="M142 613c-10 0 -18 8 -18 18s8 18 18 18s18 -8 18 -18s-8 -18 -18 -18zM268 613c-10 0 -18 8 -18 18s8 18 18 18s18 -8 18 -18s-8 -18 -18 -18z" />
    <glyph glyph-name="copyright" unicode="&#xa9;" horiz-adv-x="794" 
d="M397 -3c-189 0 -350 124 -350 353s161 353 350 353s350 -124 350 -353s-161 -353 -350 -353zM65 350c0 -219 151 -337 332 -337s332 118 332 337s-151 337 -332 337s-332 -118 -332 -337zM406 158c-115 0 -187 74 -187 193s79 191 187 191c72 0 109 -27 129 -44v-16h-14
c-20 22 -50 43 -115 43c-98 0 -167 -62 -167 -174s61 -176 167 -176c68 0 104 29 121 53h14v-16c-22 -24 -63 -54 -135 -54z" />
    <glyph glyph-name="ordfeminine" unicode="&#xaa;" horiz-adv-x="420" 
d="M334 276v60c-40 -49 -83 -82 -165 -82c-78 0 -137 36 -137 125c0 87 73 127 177 127c45 0 87 -5 125 -15v90c0 88 -51 105 -118 105c-70 0 -118 -19 -145 -41h-11v17c32 21 84 41 158 41c73 0 135 -25 135 -121v-325h-6c-9 0 -13 4 -13 19zM170 270c81 0 125 37 164 89
v116c-39 9 -80 16 -124 16c-94 0 -159 -32 -159 -111c0 -82 49 -110 119 -110z" />
    <glyph glyph-name="guillemotleft" unicode="&#xab;" horiz-adv-x="411" 
d="M208 50l-169 202v14l169 203h12v-13l-161 -196v-2l161 -195v-13h-12zM360 50l-169 202v14l169 203h12v-13l-161 -196v-2l161 -195v-13h-12z" />
    <glyph glyph-name="registered" unicode="&#xae;" horiz-adv-x="416" 
d="M208 350c-96 0 -181 66 -181 179c0 114 85 179 181 179c95 0 181 -65 181 -179c0 -113 -86 -179 -181 -179zM208 366c89 0 163 60 163 163c0 104 -74 163 -163 163s-163 -59 -163 -163c0 -103 74 -163 163 -163zM270 432l-55 89h-48v-89h-20v200h68c47 0 67 -21 67 -55
c0 -30 -17 -49 -47 -54l51 -81v-10h-16zM167 615v-78h48c34 0 47 14 47 40c0 24 -10 38 -47 38h-48z" />
    <glyph glyph-name="macron" unicode="&#xaf;" 
d="M102 621v15h206v-15h-206z" />
    <glyph glyph-name="degree" unicode="&#xb0;" horiz-adv-x="301" 
d="M150 465c-63 0 -118 48 -118 120c0 74 55 121 118 121c64 0 119 -47 119 -121c0 -72 -55 -120 -119 -120zM50 585c0 -61 45 -104 100 -104c56 0 101 43 101 104c0 63 -45 105 -101 105c-55 0 -100 -42 -100 -105z" />
    <glyph glyph-name="two.superior" unicode="&#xb2;" horiz-adv-x="280" 
d="M257 350v-16h-233v16l116 108c70 65 97 95 97 146c0 53 -33 82 -90 82c-49 0 -79 -20 -99 -43h-12v14c22 22 59 45 111 45c65 0 109 -36 109 -98c0 -54 -33 -92 -107 -160l-103 -94h211z" />
    <glyph glyph-name="three.superior" unicode="&#xb3;" horiz-adv-x="268" 
d="M124 332c-49 0 -89 16 -112 37v15h13c18 -19 50 -36 99 -36c67 0 102 33 102 90c0 62 -52 80 -99 80h-34v15h31c53 0 92 27 92 79c0 50 -31 74 -88 74c-43 0 -74 -16 -92 -34h-12v16c23 18 60 34 104 34c66 0 107 -32 107 -90c0 -50 -32 -76 -71 -85v-2
c46 -5 81 -35 81 -87c0 -68 -46 -106 -121 -106z" />
    <glyph glyph-name="acute" unicode="&#xb4;" 
d="M190 578v9l89 113h16v-11l-92 -111h-13z" />
    <glyph glyph-name="paragraph" unicode="&#xb6;" horiz-adv-x="517" 
d="M289 -91v443h-20c-132 0 -237 31 -237 174c0 145 101 174 235 174h153v-791h-19v775h-93v-775h-19z" />
    <glyph glyph-name="periodcentered" unicode="&#xb7;" horiz-adv-x="110" 
d="M55 341c12 0 21 -9 21 -21s-9 -21 -21 -21s-21 9 -21 21s9 21 21 21z" />
    <glyph glyph-name="cedilla" unicode="&#xb8;" 
d="M173 0h17v-50c55 0 81 -21 81 -62c0 -39 -31 -61 -72 -61c-32 0 -53 9 -69 21v15h13c8 -13 30 -20 56 -20c35 0 54 17 54 45c0 35 -19 46 -69 46h-11v66z" />
    <glyph glyph-name="one.superior" unicode="&#xb9;" horiz-adv-x="198" 
d="M127 334h-19v346l-86 -49h-11v12l103 57h13v-366z" />
    <glyph glyph-name="ordmasculine" unicode="&#xba;" horiz-adv-x="484" 
d="M242 254c-116 0 -204 85 -204 225c0 138 88 224 204 224s204 -86 204 -224c0 -140 -88 -225 -204 -225zM242 270c111 0 184 77 184 209c0 130 -73 208 -184 208s-184 -78 -184 -208c0 -132 73 -209 184 -209z" />
    <glyph glyph-name="guillemotright" unicode="&#xbb;" horiz-adv-x="411" 
d="M203 469l169 -202v-14l-169 -203h-12v13l161 196v2l-161 195v13h12zM51 469l169 -202v-14l-169 -203h-12v13l161 196v2l-161 195v13h12z" />
    <glyph glyph-name="onequarter" unicode="&#xbc;" horiz-adv-x="627" 
d="M127 334h-19v346l-86 -49h-11v12l103 57h13v-366zM545 729l-492 -763h-21l492 763h21zM542 0h-18v97h-195v16l198 253h15v-255h60v-14h-60v-97zM350 113v-2h174v223h-2z" />
    <glyph glyph-name="onehalf" unicode="&#xbd;" horiz-adv-x="661" 
d="M127 334h-19v346l-86 -49h-11v12l103 57h13v-366zM545 729l-492 -763h-21l492 763h21zM638 16v-16h-233v16l116 108c70 65 97 95 97 146c0 53 -33 82 -90 82c-49 0 -79 -20 -99 -43h-12v14c22 22 59 45 111 45c65 0 109 -36 109 -98c0 -54 -33 -92 -107 -160l-103 -94
h211z" />
    <glyph glyph-name="threequarters" unicode="&#xbe;" horiz-adv-x="667" 
d="M124 332c-49 0 -89 16 -112 37v15h13c18 -19 50 -36 99 -36c67 0 102 33 102 90c0 62 -52 80 -99 80h-34v15h31c53 0 92 27 92 79c0 50 -31 74 -88 74c-43 0 -74 -16 -92 -34h-12v16c23 18 60 34 104 34c66 0 107 -32 107 -90c0 -50 -32 -76 -71 -85v-2
c46 -5 81 -35 81 -87c0 -68 -46 -106 -121 -106zM604 729l-492 -763h-21l492 763h21zM582 0h-18v97h-195v16l198 253h15v-255h60v-14h-60v-97zM390 113v-2h174v223h-2z" />
    <glyph glyph-name="questiondown" unicode="&#xbf;" horiz-adv-x="431" 
d="M272 505c15 -122 -19 -162 -81 -230c-63 -63 -132 -113 -132 -200c0 -93 50 -139 148 -139c87 0 139 32 165 64h14v-16c-31 -28 -84 -64 -179 -64c-103 0 -168 46 -168 155c0 96 73 145 140 214c53 55 88 94 75 216h18zM260 626c12 0 21 -9 21 -21s-9 -21 -21 -21
s-21 9 -21 21s9 21 21 21z" />
    <glyph glyph-name="Agrave" unicode="&#xc0;" horiz-adv-x="594" 
d="M36 0v14l249 686h27l246 -686v-14h-15l-85 235h-323l-85 -235h-14zM297 681l-156 -429h311l-153 429h-2zM315 739h-13l-69 91v11h16l66 -93v-9z" />
    <glyph glyph-name="Aacute" unicode="&#xc1;" horiz-adv-x="594" 
d="M36 0v14l249 686h27l246 -686v-14h-15l-85 235h-323l-85 -235h-14zM297 681l-156 -429h311l-153 429h-2zM292 739h-13v9l66 93h16v-11z" />
    <glyph glyph-name="Acircumflex" unicode="&#xc2;" horiz-adv-x="594" 
d="M36 0v14l249 686h27l246 -686v-14h-15l-85 235h-323l-85 -235h-14zM297 681l-156 -429h311l-153 429h-2zM200 739v10l88 92h20l88 -92v-10h-13l-85 85l-85 -85h-13z" />
    <glyph glyph-name="Atilde" unicode="&#xc3;" horiz-adv-x="594" 
d="M36 0v14l249 686h27l246 -686v-14h-15l-85 235h-323l-85 -235h-14zM297 681l-156 -429h311l-153 429h-2zM182 752v10c6 24 26 53 61 53c40 0 75 -42 110 -42c24 0 41 18 45 45h16v-10c-7 -26 -26 -52 -61 -52c-40 0 -75 42 -110 42c-24 0 -41 -18 -45 -46h-16z" />
    <glyph glyph-name="Adieresis" unicode="&#xc4;" horiz-adv-x="594" 
d="M36 0v14l249 686h27l246 -686v-14h-15l-85 235h-323l-85 -235h-14zM297 681l-156 -429h311l-153 429h-2zM235 754c-10 0 -18 8 -18 18s8 18 18 18s18 -8 18 -18s-8 -18 -18 -18zM361 754c-10 0 -18 8 -18 18s8 18 18 18s18 -8 18 -18s-8 -18 -18 -18z" />
    <glyph glyph-name="Aring" unicode="&#xc5;" horiz-adv-x="594" 
d="M36 0v14l249 686h27l246 -686v-14h-15l-85 235h-323l-85 -235h-14zM297 681l-156 -429h311l-153 429h-2zM299 744c-42 0 -80 30 -80 79c0 47 38 79 80 79c41 0 79 -32 79 -79c0 -49 -38 -79 -79 -79zM237 823c0 -39 27 -63 62 -63c34 0 61 24 61 63c0 38 -27 63 -61 63
c-35 0 -62 -25 -62 -63z" />
    <glyph glyph-name="AE" unicode="&#xc6;" horiz-adv-x="928" 
d="M472 0v235h-300l-125 -235h-15v14l368 686h476v-17h-384v-311h293v-17h-293v-338h398v-17h-418zM411 683l-230 -431h291v431h-61z" />
    <glyph glyph-name="Ccedilla" unicode="&#xc7;" horiz-adv-x="623" 
d="M582 92c-49 -50 -109 -92 -222 -95v-47c55 0 81 -21 81 -62c0 -39 -31 -61 -72 -61c-32 0 -53 9 -69 21v15h13c8 -13 30 -20 56 -20c35 0 54 17 54 45c0 35 -19 46 -69 46h-11v63c-166 3 -286 127 -286 356c0 233 141 350 298 350c114 0 163 -36 214 -82v-17h-14
c-39 47 -94 82 -199 82c-153 0 -279 -111 -279 -332s109 -340 272 -340c111 0 178 41 219 95h14v-17z" />
    <glyph glyph-name="Egrave" unicode="&#xc8;" horiz-adv-x="553" 
d="M97 0v700h404v-17h-384v-311h293v-17h-293v-338h398v-17h-418zM327 739h-13l-69 91v11h16l66 -93v-9z" />
    <glyph glyph-name="Eacute" unicode="&#xc9;" horiz-adv-x="553" 
d="M97 0v700h404v-17h-384v-311h293v-17h-293v-338h398v-17h-418zM304 739h-13v9l66 93h16v-11z" />
    <glyph glyph-name="Ecircumflex" unicode="&#xca;" horiz-adv-x="553" 
d="M97 0v700h404v-17h-384v-311h293v-17h-293v-338h398v-17h-418zM212 739v10l88 92h20l88 -92v-10h-13l-85 85l-85 -85h-13z" />
    <glyph glyph-name="Edieresis" unicode="&#xcb;" horiz-adv-x="553" 
d="M97 0v700h404v-17h-384v-311h293v-17h-293v-338h398v-17h-418zM247 754c-10 0 -18 8 -18 18s8 18 18 18s18 -8 18 -18s-8 -18 -18 -18zM373 754c-10 0 -18 8 -18 18s8 18 18 18s18 -8 18 -18s-8 -18 -18 -18z" />
    <glyph glyph-name="Igrave" unicode="&#xcc;" horiz-adv-x="218" 
d="M119 0h-20v700h20v-700zM126 739h-13l-69 91v11h16l66 -93v-9z" />
    <glyph glyph-name="Iacute" unicode="&#xcd;" horiz-adv-x="218" 
d="M119 0h-20v700h20v-700zM103 739h-13v9l66 93h16v-11z" />
    <glyph glyph-name="Icircumflex" unicode="&#xce;" horiz-adv-x="218" 
d="M119 0h-20v700h20v-700zM11 739v10l88 92h20l88 -92v-10h-13l-85 85l-85 -85h-13z" />
    <glyph glyph-name="Idieresis" unicode="&#xcf;" horiz-adv-x="218" 
d="M119 0h-20v700h20v-700zM46 754c-10 0 -18 8 -18 18s8 18 18 18s18 -8 18 -18s-8 -18 -18 -18zM172 754c-10 0 -18 8 -18 18s8 18 18 18s18 -8 18 -18s-8 -18 -18 -18z" />
    <glyph glyph-name="Eth" unicode="&#xd0;" horiz-adv-x="670" 
d="M27 343v17h70v340h176c230 0 347 -98 347 -350s-117 -350 -347 -350h-176v343h-70zM117 18h156c221 0 327 91 327 332s-106 332 -327 332h-156v-322h223v-17h-223v-325z" />
    <glyph glyph-name="Ntilde" unicode="&#xd1;" horiz-adv-x="680" 
d="M97 0v700h30l436 -666h1v666h19v-700h-20l-446 681h-1v-681h-19zM236 752v10c6 24 26 53 61 53c40 0 75 -42 110 -42c24 0 41 18 45 45h16v-10c-7 -26 -26 -52 -61 -52c-40 0 -75 42 -110 42c-24 0 -41 -18 -45 -46h-16z" />
    <glyph glyph-name="Ograve" unicode="&#xd2;" horiz-adv-x="713" 
d="M357 -3c-168 0 -307 123 -307 353s139 353 307 353s306 -123 306 -353s-138 -353 -306 -353zM357 14c160 0 286 117 286 336c0 218 -126 336 -286 336c-161 0 -287 -118 -287 -336c0 -219 126 -336 287 -336zM373 739h-13l-69 91v11h16l66 -93v-9z" />
    <glyph glyph-name="Oacute" unicode="&#xd3;" horiz-adv-x="713" 
d="M357 -3c-168 0 -307 123 -307 353s139 353 307 353s306 -123 306 -353s-138 -353 -306 -353zM357 14c160 0 286 117 286 336c0 218 -126 336 -286 336c-161 0 -287 -118 -287 -336c0 -219 126 -336 287 -336zM350 739h-13v9l66 93h16v-11z" />
    <glyph glyph-name="Ocircumflex" unicode="&#xd4;" horiz-adv-x="713" 
d="M357 -3c-168 0 -307 123 -307 353s139 353 307 353s306 -123 306 -353s-138 -353 -306 -353zM357 14c160 0 286 117 286 336c0 218 -126 336 -286 336c-161 0 -287 -118 -287 -336c0 -219 126 -336 287 -336zM258 739v10l88 92h20l88 -92v-10h-13l-85 85l-85 -85h-13z
" />
    <glyph glyph-name="Otilde" unicode="&#xd5;" horiz-adv-x="713" 
d="M357 -3c-168 0 -307 123 -307 353s139 353 307 353s306 -123 306 -353s-138 -353 -306 -353zM357 14c160 0 286 117 286 336c0 218 -126 336 -286 336c-161 0 -287 -118 -287 -336c0 -219 126 -336 287 -336zM240 752v10c6 24 26 53 61 53c40 0 75 -42 110 -42
c24 0 41 18 45 45h16v-10c-7 -26 -26 -52 -61 -52c-40 0 -75 42 -110 42c-24 0 -41 -18 -45 -46h-16z" />
    <glyph glyph-name="Odieresis" unicode="&#xd6;" horiz-adv-x="713" 
d="M357 -3c-168 0 -307 123 -307 353s139 353 307 353s306 -123 306 -353s-138 -353 -306 -353zM357 14c160 0 286 117 286 336c0 218 -126 336 -286 336c-161 0 -287 -118 -287 -336c0 -219 126 -336 287 -336zM293 754c-10 0 -18 8 -18 18s8 18 18 18s18 -8 18 -18
s-8 -18 -18 -18zM419 754c-10 0 -18 8 -18 18s8 18 18 18s18 -8 18 -18s-8 -18 -18 -18z" />
    <glyph glyph-name="multiply" unicode="&#xd7;" horiz-adv-x="450" 
d="M380 168l-156 158l-155 -158l-12 12l155 158l-155 158l12 12l155 -158l156 158l12 -12l-156 -158l156 -158z" />
    <glyph glyph-name="Oslash" unicode="&#xd8;" horiz-adv-x="713" 
d="M357 -3c-76 0 -145 25 -199 73l-75 -99h-13v11l75 100c-58 59 -95 149 -95 268c0 230 139 353 307 353c76 0 146 -26 200 -75l70 93h13v-11l-71 -94c58 -59 94 -149 94 -266c0 -230 -138 -353 -306 -353zM70 350c0 -112 33 -197 86 -254l390 518c-50 47 -116 72 -189 72
c-161 0 -287 -118 -287 -336zM357 14c160 0 286 117 286 336c0 110 -32 194 -85 251l-390 -517c50 -47 116 -70 189 -70z" />
    <glyph glyph-name="Ugrave" unicode="&#xd9;" horiz-adv-x="678" 
d="M342 14c119 0 224 43 224 207v479h20v-478c0 -174 -117 -225 -245 -225s-249 51 -249 225v478h20v-479c0 -160 108 -207 230 -207zM356 739h-13l-69 91v11h16l66 -93v-9z" />
    <glyph glyph-name="Uacute" unicode="&#xda;" horiz-adv-x="678" 
d="M342 14c119 0 224 43 224 207v479h20v-478c0 -174 -117 -225 -245 -225s-249 51 -249 225v478h20v-479c0 -160 108 -207 230 -207zM333 739h-13v9l66 93h16v-11z" />
    <glyph glyph-name="Ucircumflex" unicode="&#xdb;" horiz-adv-x="678" 
d="M342 14c119 0 224 43 224 207v479h20v-478c0 -174 -117 -225 -245 -225s-249 51 -249 225v478h20v-479c0 -160 108 -207 230 -207zM241 739v10l88 92h20l88 -92v-10h-13l-85 85l-85 -85h-13z" />
    <glyph glyph-name="Udieresis" unicode="&#xdc;" horiz-adv-x="678" 
d="M342 14c119 0 224 43 224 207v479h20v-478c0 -174 -117 -225 -245 -225s-249 51 -249 225v478h20v-479c0 -160 108 -207 230 -207zM276 754c-10 0 -18 8 -18 18s8 18 18 18s18 -8 18 -18s-8 -18 -18 -18zM402 754c-10 0 -18 8 -18 18s8 18 18 18s18 -8 18 -18
s-8 -18 -18 -18z" />
    <glyph glyph-name="Yacute" unicode="&#xdd;" horiz-adv-x="539" 
d="M279 0h-20v299l-229 388v13h14l225 -383h1l226 383h13v-13l-230 -388v-299zM264 739h-13v9l66 93h16v-11z" />
    <glyph glyph-name="Thorn" unicode="&#xde;" horiz-adv-x="545" 
d="M97 0v700h20v-149h146c140 0 238 -45 238 -189s-91 -192 -238 -192h-146v-170h-20zM117 533v-345h146c136 0 218 37 218 174c0 135 -91 171 -218 171h-146z" />
    <glyph glyph-name="germandbls" unicode="&#xdf;" horiz-adv-x="552" 
d="M495 135c0 77 -61 103 -125 126c-78 27 -121 47 -121 96c0 39 29 64 76 99c58 43 111 81 111 137c0 69 -63 94 -143 94c-118 0 -193 -67 -193 -198v-489h-19v489c0 147 92 214 213 214c86 0 161 -29 161 -110c0 -64 -60 -106 -120 -149c-45 -32 -67 -56 -67 -87
c0 -35 31 -52 107 -79s139 -55 139 -143c0 -94 -67 -138 -163 -138c-66 0 -107 19 -133 39v14h14c26 -22 62 -37 119 -37c81 0 144 36 144 122z" />
    <glyph glyph-name="agrave" unicode="&#xe0;" horiz-adv-x="489" 
d="M394 23v71c-47 -58 -99 -97 -195 -97c-92 0 -162 42 -162 147c0 102 87 148 209 148c53 0 103 -6 148 -18v111c0 100 -60 124 -140 124c-82 0 -139 -21 -171 -48h-12v18c38 23 98 46 184 46c88 0 158 -29 158 -139v-386h-5c-11 0 -14 5 -14 23zM200 13
c95 0 148 43 194 104v140c-46 12 -95 19 -147 19c-110 0 -191 -39 -191 -131c0 -96 62 -132 144 -132zM262 578h-13l-92 111v11h16l89 -113v-9z" />
    <glyph glyph-name="aacute" unicode="&#xe1;" horiz-adv-x="489" 
d="M394 23v71c-47 -58 -99 -97 -195 -97c-92 0 -162 42 -162 147c0 102 87 148 209 148c53 0 103 -6 148 -18v111c0 100 -60 124 -140 124c-82 0 -139 -21 -171 -48h-12v18c38 23 98 46 184 46c88 0 158 -29 158 -139v-386h-5c-11 0 -14 5 -14 23zM200 13
c95 0 148 43 194 104v140c-46 12 -95 19 -147 19c-110 0 -191 -39 -191 -131c0 -96 62 -132 144 -132zM225 578v9l89 113h16v-11l-92 -111h-13z" />
    <glyph glyph-name="acircumflex" unicode="&#xe2;" horiz-adv-x="489" 
d="M394 23v71c-47 -58 -99 -97 -195 -97c-92 0 -162 42 -162 147c0 102 87 148 209 148c53 0 103 -6 148 -18v111c0 100 -60 124 -140 124c-82 0 -139 -21 -171 -48h-12v18c38 23 98 46 184 46c88 0 158 -29 158 -139v-386h-5c-11 0 -14 5 -14 23zM200 13
c95 0 148 43 194 104v140c-46 12 -95 19 -147 19c-110 0 -191 -39 -191 -131c0 -96 62 -132 144 -132zM141 578v10l92 112h20l92 -112v-10h-13l-89 105l-89 -105h-13z" />
    <glyph glyph-name="atilde" unicode="&#xe3;" horiz-adv-x="489" 
d="M394 23v71c-47 -58 -99 -97 -195 -97c-92 0 -162 42 -162 147c0 102 87 148 209 148c53 0 103 -6 148 -18v111c0 100 -60 124 -140 124c-82 0 -139 -21 -171 -48h-12v18c38 23 98 46 184 46c88 0 158 -29 158 -139v-386h-5c-11 0 -14 5 -14 23zM200 13
c95 0 148 43 194 104v140c-46 12 -95 19 -147 19c-110 0 -191 -39 -191 -131c0 -96 62 -132 144 -132zM127 596v10c6 24 26 53 61 53c40 0 75 -42 110 -42c24 0 41 18 45 45h16v-10c-7 -26 -26 -52 -61 -52c-40 0 -75 42 -110 42c-24 0 -41 -18 -45 -46h-16z" />
    <glyph glyph-name="adieresis" unicode="&#xe4;" horiz-adv-x="489" 
d="M394 23v71c-47 -58 -99 -97 -195 -97c-92 0 -162 42 -162 147c0 102 87 148 209 148c53 0 103 -6 148 -18v111c0 100 -60 124 -140 124c-82 0 -139 -21 -171 -48h-12v18c38 23 98 46 184 46c88 0 158 -29 158 -139v-386h-5c-11 0 -14 5 -14 23zM200 13
c95 0 148 43 194 104v140c-46 12 -95 19 -147 19c-110 0 -191 -39 -191 -131c0 -96 62 -132 144 -132zM180 613c-10 0 -18 8 -18 18s8 18 18 18s18 -8 18 -18s-8 -18 -18 -18zM306 613c-10 0 -18 8 -18 18s8 18 18 18s18 -8 18 -18s-8 -18 -18 -18z" />
    <glyph glyph-name="aring" unicode="&#xe5;" horiz-adv-x="489" 
d="M394 23v71c-47 -58 -99 -97 -195 -97c-92 0 -162 42 -162 147c0 102 87 148 209 148c53 0 103 -6 148 -18v111c0 100 -60 124 -140 124c-82 0 -139 -21 -171 -48h-12v18c38 23 98 46 184 46c88 0 158 -29 158 -139v-386h-5c-11 0 -14 5 -14 23zM200 13
c95 0 148 43 194 104v140c-46 12 -95 19 -147 19c-110 0 -191 -39 -191 -131c0 -96 62 -132 144 -132zM244 578c-42 0 -80 30 -80 79c0 47 38 79 80 79c41 0 79 -32 79 -79c0 -49 -38 -79 -79 -79zM182 657c0 -39 27 -63 62 -63c34 0 61 24 61 63c0 38 -27 63 -61 63
c-35 0 -62 -25 -62 -63z" />
    <glyph glyph-name="ae" unicode="&#xe6;" horiz-adv-x="859" 
d="M413 259c0 -153 71 -246 216 -246c87 0 143 28 169 56h14v-13c-35 -30 -94 -59 -183 -59c-105 0 -177 46 -211 127c-42 -67 -97 -127 -213 -127c-92 0 -168 42 -168 147c0 102 87 146 209 146h148v95c0 100 -60 124 -140 124c-82 0 -139 -21 -171 -48h-12v18
c38 23 98 46 185 46s155 -29 155 -139v-22c30 101 105 161 205 161c118 0 205 -69 205 -238c0 -7 -1 -13 -1 -13h-407v-15zM206 13c102 0 158 49 205 130c-11 33 -17 72 -17 116v15h-147c-110 0 -191 -37 -191 -129c0 -96 68 -132 150 -132zM616 510
c-113 0 -192 -83 -202 -220h388c-2 158 -77 220 -186 220z" />
    <glyph glyph-name="ccedilla" unicode="&#xe7;" horiz-adv-x="483" 
d="M275 -3c-6 0 -12 0 -18 1v-48c55 0 81 -21 81 -62c0 -39 -31 -61 -72 -61c-32 0 -53 9 -69 21v15h13c8 -13 30 -20 56 -20c35 0 54 17 54 45c0 35 -19 46 -69 46h-11v65c-126 15 -201 113 -201 263c0 164 99 263 237 263c92 0 136 -37 162 -60v-15h-14
c-25 30 -64 59 -148 59c-129 0 -218 -92 -218 -247c0 -154 80 -249 217 -249c88 0 138 38 161 71h14v-15c-27 -32 -83 -72 -175 -72z" />
    <glyph glyph-name="egrave" unicode="&#xe8;" horiz-adv-x="507" 
d="M58 259c0 -153 74 -246 219 -246c87 0 143 28 169 56h14v-13c-35 -30 -94 -59 -183 -59c-153 0 -238 98 -238 262c0 162 95 266 224 266c118 0 206 -70 206 -239c0 -7 -1 -13 -1 -13h-410v-14zM263 510c-113 0 -194 -83 -204 -221h391c-2 158 -78 221 -187 221zM279 578
h-13l-92 111v11h16l89 -113v-9z" />
    <glyph glyph-name="eacute" unicode="&#xe9;" horiz-adv-x="507" 
d="M58 259c0 -153 74 -246 219 -246c87 0 143 28 169 56h14v-13c-35 -30 -94 -59 -183 -59c-153 0 -238 98 -238 262c0 162 95 266 224 266c118 0 206 -70 206 -239c0 -7 -1 -13 -1 -13h-410v-14zM263 510c-113 0 -194 -83 -204 -221h391c-2 158 -78 221 -187 221zM242 578
v9l89 113h16v-11l-92 -111h-13z" />
    <glyph glyph-name="ecircumflex" unicode="&#xea;" horiz-adv-x="507" 
d="M58 259c0 -153 74 -246 219 -246c87 0 143 28 169 56h14v-13c-35 -30 -94 -59 -183 -59c-153 0 -238 98 -238 262c0 162 95 266 224 266c118 0 206 -70 206 -239c0 -7 -1 -13 -1 -13h-410v-14zM263 510c-113 0 -194 -83 -204 -221h391c-2 158 -78 221 -187 221zM158 578
v10l92 112h20l92 -112v-10h-13l-89 105l-89 -105h-13z" />
    <glyph glyph-name="edieresis" unicode="&#xeb;" horiz-adv-x="507" 
d="M58 259c0 -153 74 -246 219 -246c87 0 143 28 169 56h14v-13c-35 -30 -94 -59 -183 -59c-153 0 -238 98 -238 262c0 162 95 266 224 266c118 0 206 -70 206 -239c0 -7 -1 -13 -1 -13h-410v-14zM263 510c-113 0 -194 -83 -204 -221h391c-2 158 -78 221 -187 221zM197 613
c-10 0 -18 8 -18 18s8 18 18 18s18 -8 18 -18s-8 -18 -18 -18zM323 613c-10 0 -18 8 -18 18s8 18 18 18s18 -8 18 -18s-8 -18 -18 -18z" />
    <glyph glyph-name="igrave" unicode="&#xec;" horiz-adv-x="187" 
d="M103 0h-19v520h5c12 0 14 -3 14 -26v-494zM112 578h-13l-92 111v11h16l89 -113v-9z" />
    <glyph glyph-name="iacute" unicode="&#xed;" horiz-adv-x="187" 
d="M103 0h-19v520h5c12 0 14 -3 14 -26v-494zM75 578v9l89 113h16v-11l-92 -111h-13z" />
    <glyph glyph-name="icircumflex" unicode="&#xee;" horiz-adv-x="187" 
d="M103 0h-19v520h5c12 0 14 -3 14 -26v-494zM-9 578v10l92 112h20l92 -112v-10h-13l-89 105l-89 -105h-13z" />
    <glyph glyph-name="idieresis" unicode="&#xef;" horiz-adv-x="187" 
d="M103 0h-19v520h5c12 0 14 -3 14 -26v-494zM30 613c-10 0 -18 8 -18 18s8 18 18 18s18 -8 18 -18s-8 -18 -18 -18zM156 613c-10 0 -18 8 -18 18s8 18 18 18s18 -8 18 -18s-8 -18 -18 -18z" />
    <glyph glyph-name="eth" unicode="&#xf0;" horiz-adv-x="546" 
d="M184 570l115 68c-37 21 -78 37 -123 47v15h11c45 -11 88 -29 127 -53l86 52h14v-11l-85 -51c105 -71 178 -192 178 -369c0 -178 -94 -271 -235 -271c-143 0 -233 100 -233 264c0 163 91 264 233 264c90 0 157 -34 203 -121c-29 98 -83 175 -160 225l-117 -70h-14v11z
M272 13c135 0 216 93 216 248c0 154 -79 248 -216 248c-133 0 -214 -94 -214 -248c0 -155 80 -248 214 -248z" />
    <glyph glyph-name="ntilde" unicode="&#xf1;" horiz-adv-x="551" 
d="M100 494v-78c63 55 148 109 241 109c73 0 134 -26 134 -130v-395h-19v392c0 96 -52 117 -116 117c-87 0 -174 -51 -240 -111v-398h-19v520h5c12 0 14 -3 14 -26zM166 596v10c6 24 26 53 61 53c40 0 75 -42 110 -42c24 0 41 18 45 45h16v-10c-7 -26 -26 -52 -61 -52
c-40 0 -75 42 -110 42c-24 0 -41 -18 -45 -46h-16z" />
    <glyph glyph-name="ograve" unicode="&#xf2;" horiz-adv-x="546" 
d="M273 -3c-143 0 -234 100 -234 264c0 163 91 264 234 264c144 0 234 -101 234 -264c0 -164 -90 -264 -234 -264zM273 13c135 0 215 93 215 248c0 154 -80 248 -215 248c-134 0 -215 -94 -215 -248c0 -155 81 -248 215 -248zM292 578h-13l-92 111v11h16l89 -113v-9z" />
    <glyph glyph-name="oacute" unicode="&#xf3;" horiz-adv-x="546" 
d="M273 -3c-143 0 -234 100 -234 264c0 163 91 264 234 264c144 0 234 -101 234 -264c0 -164 -90 -264 -234 -264zM273 13c135 0 215 93 215 248c0 154 -80 248 -215 248c-134 0 -215 -94 -215 -248c0 -155 81 -248 215 -248zM255 578v9l89 113h16v-11l-92 -111h-13z" />
    <glyph glyph-name="ocircumflex" unicode="&#xf4;" horiz-adv-x="546" 
d="M273 -3c-143 0 -234 100 -234 264c0 163 91 264 234 264c144 0 234 -101 234 -264c0 -164 -90 -264 -234 -264zM273 13c135 0 215 93 215 248c0 154 -80 248 -215 248c-134 0 -215 -94 -215 -248c0 -155 81 -248 215 -248zM171 578v10l92 112h20l92 -112v-10h-13l-89 105
l-89 -105h-13z" />
    <glyph glyph-name="otilde" unicode="&#xf5;" horiz-adv-x="546" 
d="M273 -3c-143 0 -234 100 -234 264c0 163 91 264 234 264c144 0 234 -101 234 -264c0 -164 -90 -264 -234 -264zM273 13c135 0 215 93 215 248c0 154 -80 248 -215 248c-134 0 -215 -94 -215 -248c0 -155 81 -248 215 -248zM157 596v10c6 24 26 53 61 53
c40 0 75 -42 110 -42c24 0 41 18 45 45h16v-10c-7 -26 -26 -52 -61 -52c-40 0 -75 42 -110 42c-24 0 -41 -18 -45 -46h-16z" />
    <glyph glyph-name="odieresis" unicode="&#xf6;" horiz-adv-x="546" 
d="M273 -3c-143 0 -234 100 -234 264c0 163 91 264 234 264c144 0 234 -101 234 -264c0 -164 -90 -264 -234 -264zM273 13c135 0 215 93 215 248c0 154 -80 248 -215 248c-134 0 -215 -94 -215 -248c0 -155 81 -248 215 -248zM210 613c-10 0 -18 8 -18 18s8 18 18 18
s18 -8 18 -18s-8 -18 -18 -18zM336 613c-10 0 -18 8 -18 18s8 18 18 18s18 -8 18 -18s-8 -18 -18 -18z" />
    <glyph glyph-name="divide" unicode="&#xf7;" horiz-adv-x="456" 
d="M415 337h-374v17h374v-17zM228 231c12 0 21 -9 21 -21s-9 -21 -21 -21s-21 9 -21 21s9 21 21 21zM228 502c12 0 21 -9 21 -21s-9 -21 -21 -21s-21 9 -21 21s9 21 21 21z" />
    <glyph glyph-name="oslash" unicode="&#xf8;" horiz-adv-x="546" 
d="M273 -3c-63 0 -115 19 -154 54l-58 -74h-12v10l59 74c-44 46 -69 114 -69 200c0 163 91 264 234 264c63 0 116 -20 156 -56l56 72h12v-10l-57 -72c43 -46 67 -114 67 -198c0 -164 -90 -264 -234 -264zM58 261c0 -80 21 -144 60 -186l300 381c-36 34 -85 53 -145 53
c-134 0 -215 -94 -215 -248zM273 13c135 0 215 93 215 248c0 78 -21 141 -59 184l-300 -381c36 -33 85 -51 144 -51z" />
    <glyph glyph-name="ugrave" unicode="&#xf9;" horiz-adv-x="543" 
d="M443 23v74c-62 -54 -147 -102 -235 -102c-73 0 -132 24 -132 128v397h19v-394c0 -96 50 -115 114 -115c83 0 167 47 234 104v405h19v-520h-5c-11 0 -14 5 -14 23zM289 578h-13l-92 111v11h16l89 -113v-9z" />
    <glyph glyph-name="uacute" unicode="&#xfa;" horiz-adv-x="543" 
d="M443 23v74c-62 -54 -147 -102 -235 -102c-73 0 -132 24 -132 128v397h19v-394c0 -96 50 -115 114 -115c83 0 167 47 234 104v405h19v-520h-5c-11 0 -14 5 -14 23zM252 578v9l89 113h16v-11l-92 -111h-13z" />
    <glyph glyph-name="ucircumflex" unicode="&#xfb;" horiz-adv-x="543" 
d="M443 23v74c-62 -54 -147 -102 -235 -102c-73 0 -132 24 -132 128v397h19v-394c0 -96 50 -115 114 -115c83 0 167 47 234 104v405h19v-520h-5c-11 0 -14 5 -14 23zM168 578v10l92 112h20l92 -112v-10h-13l-89 105l-89 -105h-13z" />
    <glyph glyph-name="udieresis" unicode="&#xfc;" horiz-adv-x="543" 
d="M443 23v74c-62 -54 -147 -102 -235 -102c-73 0 -132 24 -132 128v397h19v-394c0 -96 50 -115 114 -115c83 0 167 47 234 104v405h19v-520h-5c-11 0 -14 5 -14 23zM333 613c-10 0 -18 8 -18 18s8 18 18 18s18 -8 18 -18s-8 -18 -18 -18zM207 613c-10 0 -18 8 -18 18
s8 18 18 18s18 -8 18 -18s-8 -18 -18 -18z" />
    <glyph glyph-name="yacute" unicode="&#xfd;" horiz-adv-x="478" 
d="M151 -162v12l82 190l-207 469v11h16l201 -456h1l194 456h15v-11l-286 -671h-16zM226 578v9l89 113h16v-11l-92 -111h-13z" />
    <glyph glyph-name="thorn" unicode="&#xfe;" horiz-adv-x="549" 
d="M100 677v-273c42 63 114 121 213 121c95 0 197 -58 197 -259c0 -207 -118 -269 -223 -269c-90 0 -148 33 -187 80v-239h-19v862h5c11 0 14 -3 14 -23zM312 509c-97 0 -163 -58 -212 -129v-281c46 -56 102 -86 187 -86c95 0 204 51 204 252c0 195 -95 244 -179 244z" />
    <glyph glyph-name="ydieresis" unicode="&#xff;" horiz-adv-x="478" 
d="M151 -162v12l82 190l-207 469v11h16l201 -456h1l194 456h15v-11l-286 -671h-16zM181 613c-10 0 -18 8 -18 18s8 18 18 18s18 -8 18 -18s-8 -18 -18 -18zM307 613c-10 0 -18 8 -18 18s8 18 18 18s18 -8 18 -18s-8 -18 -18 -18z" />
    <glyph glyph-name="Amacron" unicode="&#x100;" horiz-adv-x="594" 
d="M36 0v14l249 686h27l246 -686v-14h-15l-85 235h-323l-85 -235h-14zM297 681l-156 -429h311l-153 429h-2zM190 772v15h216v-15h-216z" />
    <glyph glyph-name="amacron" unicode="&#x101;" horiz-adv-x="489" 
d="M394 23v71c-47 -58 -99 -97 -195 -97c-92 0 -162 42 -162 147c0 102 87 148 209 148c53 0 103 -6 148 -18v111c0 100 -60 124 -140 124c-82 0 -139 -21 -171 -48h-12v18c38 23 98 46 184 46c88 0 158 -29 158 -139v-386h-5c-11 0 -14 5 -14 23zM200 13
c95 0 148 43 194 104v140c-46 12 -95 19 -147 19c-110 0 -191 -39 -191 -131c0 -96 62 -132 144 -132zM140 621v15h206v-15h-206z" />
    <glyph glyph-name="Abreve" unicode="&#x102;" horiz-adv-x="594" 
d="M36 0v14l249 686h27l246 -686v-14h-15l-85 235h-323l-85 -235h-14zM297 681l-156 -429h311l-153 429h-2zM298 741c-57 0 -95 33 -106 82v11h18c5 -50 38 -77 88 -77s83 27 88 77h18v-11c-11 -49 -49 -82 -106 -82z" />
    <glyph glyph-name="abreve" unicode="&#x103;" horiz-adv-x="489" 
d="M394 23v71c-47 -58 -99 -97 -195 -97c-92 0 -162 42 -162 147c0 102 87 148 209 148c53 0 103 -6 148 -18v111c0 100 -60 124 -140 124c-82 0 -139 -21 -171 -48h-12v18c38 23 98 46 184 46c88 0 158 -29 158 -139v-386h-5c-11 0 -14 5 -14 23zM200 13
c95 0 148 43 194 104v140c-46 12 -95 19 -147 19c-110 0 -191 -39 -191 -131c0 -96 62 -132 144 -132zM243 580c-57 0 -95 38 -106 90v11h18c5 -53 38 -85 88 -85s83 32 88 85h18v-11c-11 -52 -49 -90 -106 -90z" />
    <glyph glyph-name="Aogonek" unicode="&#x104;" horiz-adv-x="594" 
d="M544 -164c-44 0 -73 27 -73 66c0 42 35 74 71 100l-84 233h-323l-85 -235h-14v14l249 686h27l246 -686v-17c-41 -31 -68 -57 -68 -95c0 -31 19 -49 56 -49h36v-14c-10 -2 -22 -3 -38 -3zM297 681l-156 -429h311l-153 429h-2z" />
    <glyph glyph-name="aogonek" unicode="&#x105;" horiz-adv-x="489" 
d="M398 -164c-44 0 -73 27 -73 66c0 40 31 72 69 98v94c-47 -58 -99 -97 -195 -97c-92 0 -162 42 -162 147c0 102 87 148 209 148c53 0 103 -6 148 -18v111c0 100 -60 124 -140 124c-82 0 -139 -21 -171 -48h-12v18c38 23 98 46 184 46c88 0 158 -29 158 -139v-388
c-43 -32 -69 -58 -69 -96c0 -31 19 -49 56 -49h36v-14c-10 -2 -22 -3 -38 -3zM200 13c95 0 148 43 194 104v140c-46 12 -95 19 -147 19c-110 0 -191 -39 -191 -131c0 -96 62 -132 144 -132z" />
    <glyph glyph-name="Cacute" unicode="&#x106;" horiz-adv-x="623" 
d="M349 -3c-169 0 -292 124 -292 356c0 233 141 350 298 350c114 0 163 -36 214 -82v-17h-14c-39 47 -94 82 -199 82c-153 0 -279 -111 -279 -332s109 -340 272 -340c111 0 178 41 219 95h14v-17c-50 -51 -113 -95 -233 -95zM346 739h-13v9l66 93h16v-11z" />
    <glyph glyph-name="cacute" unicode="&#x107;" horiz-adv-x="483" 
d="M275 -3c-146 0 -236 102 -236 265c0 164 99 263 237 263c92 0 136 -37 162 -60v-15h-14c-25 30 -64 59 -148 59c-129 0 -218 -92 -218 -247c0 -154 80 -249 217 -249c88 0 138 38 161 71h14v-15c-27 -32 -83 -72 -175 -72zM251 578v9l89 113h16v-11l-92 -111h-13z" />
    <glyph glyph-name="Ccircumflex" unicode="&#x108;" horiz-adv-x="623" 
d="M349 -3c-169 0 -292 124 -292 356c0 233 141 350 298 350c114 0 163 -36 214 -82v-17h-14c-39 47 -94 82 -199 82c-153 0 -279 -111 -279 -332s109 -340 272 -340c111 0 178 41 219 95h14v-17c-50 -51 -113 -95 -233 -95zM254 739v10l88 92h20l88 -92v-10h-13l-85 85
l-85 -85h-13z" />
    <glyph glyph-name="ccircumflex" unicode="&#x109;" horiz-adv-x="483" 
d="M275 -3c-146 0 -236 102 -236 265c0 164 99 263 237 263c92 0 136 -37 162 -60v-15h-14c-25 30 -64 59 -148 59c-129 0 -218 -92 -218 -247c0 -154 80 -249 217 -249c88 0 138 38 161 71h14v-15c-27 -32 -83 -72 -175 -72zM167 578v10l92 112h20l92 -112v-10h-13l-89 105
l-89 -105h-13z" />
    <glyph glyph-name="Cdotaccent" unicode="&#x10a;" horiz-adv-x="623" 
d="M349 -3c-169 0 -292 124 -292 356c0 233 141 350 298 350c114 0 163 -36 214 -82v-17h-14c-39 47 -94 82 -199 82c-153 0 -279 -111 -279 -332s109 -340 272 -340c111 0 178 41 219 95h14v-17c-50 -51 -113 -95 -233 -95zM352 790c10 0 18 -8 18 -18s-8 -18 -18 -18
s-18 8 -18 18s8 18 18 18z" />
    <glyph glyph-name="cdotaccent" unicode="&#x10b;" horiz-adv-x="483" 
d="M275 -3c-146 0 -236 102 -236 265c0 164 99 263 237 263c92 0 136 -37 162 -60v-15h-14c-25 30 -64 59 -148 59c-129 0 -218 -92 -218 -247c0 -154 80 -249 217 -249c88 0 138 38 161 71h14v-15c-27 -32 -83 -72 -175 -72zM269 649c10 0 18 -8 18 -18s-8 -18 -18 -18
s-18 8 -18 18s8 18 18 18z" />
    <glyph glyph-name="Ccaron" unicode="&#x10c;" horiz-adv-x="623" 
d="M349 -3c-169 0 -292 124 -292 356c0 233 141 350 298 350c114 0 163 -36 214 -82v-17h-14c-39 47 -94 82 -199 82c-153 0 -279 -111 -279 -332s109 -340 272 -340c111 0 178 41 219 95h14v-17c-50 -51 -113 -95 -233 -95zM450 841v-10l-88 -92h-20l-88 92v10h13l85 -85
l85 85h13z" />
    <glyph glyph-name="ccaron" unicode="&#x10d;" horiz-adv-x="483" 
d="M275 -3c-146 0 -236 102 -236 265c0 164 99 263 237 263c92 0 136 -37 162 -60v-15h-14c-25 30 -64 59 -148 59c-129 0 -218 -92 -218 -247c0 -154 80 -249 217 -249c88 0 138 38 161 71h14v-15c-27 -32 -83 -72 -175 -72zM371 700v-10l-92 -112h-20l-92 112v10h13
l89 -105l89 105h13z" />
    <glyph glyph-name="Dcaron" unicode="&#x10e;" horiz-adv-x="670" 
d="M97 0v700h176c230 0 347 -98 347 -350s-117 -350 -347 -350h-176zM117 18h156c221 0 327 91 327 332s-106 332 -327 332h-156v-664zM414 841v-10l-88 -92h-20l-88 92v10h13l85 -85l85 85h13z" />
    <glyph glyph-name="dcaron" unicode="&#x10f;" horiz-adv-x="549" 
d="M468 677v-677h-6c-11 0 -13 6 -13 27v83c-43 -64 -113 -113 -210 -113c-95 0 -200 58 -200 259c0 207 118 269 223 269c89 0 148 -33 187 -81v256h5c11 0 14 -3 14 -23zM240 13c95 0 160 48 209 122v287c-47 57 -102 87 -187 87c-95 0 -204 -51 -204 -252
c0 -195 98 -244 182 -244zM531 578l10 122h19v-11l-16 -111h-13z" />
    <glyph glyph-name="Dcroat" unicode="&#x110;" horiz-adv-x="670" 
d="M27 343v17h70v340h176c230 0 347 -98 347 -350s-117 -350 -347 -350h-176v343h-70zM117 18h156c221 0 327 91 327 332s-106 332 -327 332h-156v-322h223v-17h-223v-325z" />
    <glyph glyph-name="dcroat" unicode="&#x111;" horiz-adv-x="549" 
d="M468 677v-64h71v-16h-71v-597h-6c-11 0 -13 6 -13 27v83c-43 -64 -113 -113 -210 -113c-95 0 -200 58 -200 259c0 207 118 269 223 269c89 0 148 -33 187 -81v153h-162v16h162v87h5c11 0 14 -3 14 -23zM240 13c95 0 160 48 209 122v287c-47 57 -102 87 -187 87
c-95 0 -204 -51 -204 -252c0 -195 98 -244 182 -244z" />
    <glyph glyph-name="Emacron" unicode="&#x112;" horiz-adv-x="553" 
d="M97 0v700h404v-17h-384v-311h293v-17h-293v-338h398v-17h-418zM202 772v15h216v-15h-216z" />
    <glyph glyph-name="emacron" unicode="&#x113;" horiz-adv-x="507" 
d="M58 259c0 -153 74 -246 219 -246c87 0 143 28 169 56h14v-13c-35 -30 -94 -59 -183 -59c-153 0 -238 98 -238 262c0 162 95 266 224 266c118 0 206 -70 206 -239c0 -7 -1 -13 -1 -13h-410v-14zM263 510c-113 0 -194 -83 -204 -221h391c-2 158 -78 221 -187 221zM157 621
v15h206v-15h-206z" />
    <glyph glyph-name="Ebreve" unicode="&#x114;" horiz-adv-x="553" 
d="M97 0v700h404v-17h-384v-311h293v-17h-293v-338h398v-17h-418zM310 741c-57 0 -95 33 -106 82v11h18c5 -50 38 -77 88 -77s83 27 88 77h18v-11c-11 -49 -49 -82 -106 -82z" />
    <glyph glyph-name="ebreve" unicode="&#x115;" horiz-adv-x="507" 
d="M58 259c0 -153 74 -246 219 -246c87 0 143 28 169 56h14v-13c-35 -30 -94 -59 -183 -59c-153 0 -238 98 -238 262c0 162 95 266 224 266c118 0 206 -70 206 -239c0 -7 -1 -13 -1 -13h-410v-14zM263 510c-113 0 -194 -83 -204 -221h391c-2 158 -78 221 -187 221zM260 580
c-57 0 -95 38 -106 90v11h18c5 -53 38 -85 88 -85s83 32 88 85h18v-11c-11 -52 -49 -90 -106 -90z" />
    <glyph glyph-name="Edotaccent" unicode="&#x116;" horiz-adv-x="553" 
d="M97 0v700h404v-17h-384v-311h293v-17h-293v-338h398v-17h-418zM310 790c10 0 18 -8 18 -18s-8 -18 -18 -18s-18 8 -18 18s8 18 18 18z" />
    <glyph glyph-name="edotaccent" unicode="&#x117;" horiz-adv-x="507" 
d="M58 259c0 -153 74 -246 219 -246c87 0 143 28 169 56h14v-13c-35 -30 -94 -59 -183 -59c-153 0 -238 98 -238 262c0 162 95 266 224 266c118 0 206 -70 206 -239c0 -7 -1 -13 -1 -13h-410v-14zM263 510c-113 0 -194 -83 -204 -221h391c-2 158 -78 221 -187 221zM260 649
c10 0 18 -8 18 -18s-8 -18 -18 -18s-18 8 -18 18s8 18 18 18z" />
    <glyph glyph-name="Eogonek" unicode="&#x118;" horiz-adv-x="553" 
d="M97 0v700h404v-17h-384v-311h293v-17h-293v-338h398v-17h-33c-44 -33 -72 -59 -72 -98c0 -31 19 -49 56 -49h36v-14c-10 -2 -22 -3 -38 -3c-44 0 -73 27 -73 66c0 42 35 74 69 98h-363z" />
    <glyph glyph-name="eogonek" unicode="&#x119;" horiz-adv-x="507" 
d="M377 -164c-44 0 -73 27 -73 66c0 46 32 75 92 120c-33 -15 -66 -25 -119 -25c-153 0 -238 98 -238 262c0 162 95 266 224 266c118 0 206 -70 206 -239c0 -7 -1 -13 -1 -13h-410v-14c0 -153 74 -246 219 -246c87 0 143 28 169 56h14v-13c-36 -33 -75 -57 -107 -89
c-22 -22 -30 -40 -30 -65c0 -31 19 -49 56 -49h36v-14c-10 -2 -22 -3 -38 -3zM263 510c-113 0 -194 -83 -204 -221h391c-2 158 -78 221 -187 221z" />
    <glyph glyph-name="Ecaron" unicode="&#x11a;" horiz-adv-x="553" 
d="M97 0v700h404v-17h-384v-311h293v-17h-293v-338h398v-17h-418zM408 841v-10l-88 -92h-20l-88 92v10h13l85 -85l85 85h13z" />
    <glyph glyph-name="ecaron" unicode="&#x11b;" horiz-adv-x="507" 
d="M58 259c0 -153 74 -246 219 -246c87 0 143 28 169 56h14v-13c-35 -30 -94 -59 -183 -59c-153 0 -238 98 -238 262c0 162 95 266 224 266c118 0 206 -70 206 -239c0 -7 -1 -13 -1 -13h-410v-14zM263 510c-113 0 -194 -83 -204 -221h391c-2 158 -78 221 -187 221zM362 700
v-10l-92 -112h-20l-92 112v10h13l89 -105l89 105h13z" />
    <glyph glyph-name="Gcircumflex" unicode="&#x11c;" horiz-adv-x="678" 
d="M369 -3c-193 0 -319 117 -319 356c0 240 150 350 319 350c101 0 164 -28 204 -61v-17h-14c-36 36 -99 62 -190 62c-166 0 -297 -105 -297 -333s111 -339 297 -339c106 0 161 24 203 50v251h-167v17h188v-278c-41 -24 -105 -58 -224 -58zM264 739v10l88 92h20l88 -92v-10
h-13l-85 85l-85 -85h-13z" />
    <glyph glyph-name="gcircumflex" unicode="&#x11d;" horiz-adv-x="549" 
d="M468 520v-524c0 -120 -107 -161 -204 -161c-87 0 -156 24 -194 47v18h12c32 -27 98 -49 180 -49c90 0 187 36 187 146v114c-43 -64 -113 -114 -210 -114c-95 0 -200 58 -200 259c0 207 118 269 223 269c89 0 148 -33 187 -81v50c0 21 3 26 14 26h5zM240 13
c95 0 160 49 209 123v286c-47 57 -102 87 -187 87c-95 0 -204 -51 -204 -252c0 -195 98 -244 182 -244zM174 578v10l92 112h20l92 -112v-10h-13l-89 105l-89 -105h-13z" />
    <glyph glyph-name="Gbreve" unicode="&#x11e;" horiz-adv-x="678" 
d="M369 -3c-193 0 -319 117 -319 356c0 240 150 350 319 350c101 0 164 -28 204 -61v-17h-14c-36 36 -99 62 -190 62c-166 0 -297 -105 -297 -333s111 -339 297 -339c106 0 161 24 203 50v251h-167v17h188v-278c-41 -24 -105 -58 -224 -58zM362 741c-57 0 -95 33 -106 82v11
h18c5 -50 38 -77 88 -77s83 27 88 77h18v-11c-11 -49 -49 -82 -106 -82z" />
    <glyph glyph-name="gbreve" unicode="&#x11f;" horiz-adv-x="549" 
d="M468 520v-524c0 -120 -107 -161 -204 -161c-87 0 -156 24 -194 47v18h12c32 -27 98 -49 180 -49c90 0 187 36 187 146v114c-43 -64 -113 -114 -210 -114c-95 0 -200 58 -200 259c0 207 118 269 223 269c89 0 148 -33 187 -81v50c0 21 3 26 14 26h5zM240 13
c95 0 160 49 209 123v286c-47 57 -102 87 -187 87c-95 0 -204 -51 -204 -252c0 -195 98 -244 182 -244zM276 580c-57 0 -95 38 -106 90v11h18c5 -53 38 -85 88 -85s83 32 88 85h18v-11c-11 -52 -49 -90 -106 -90z" />
    <glyph glyph-name="Gdotaccent" unicode="&#x120;" horiz-adv-x="678" 
d="M369 -3c-193 0 -319 117 -319 356c0 240 150 350 319 350c101 0 164 -28 204 -61v-17h-14c-36 36 -99 62 -190 62c-166 0 -297 -105 -297 -333s111 -339 297 -339c106 0 161 24 203 50v251h-167v17h188v-278c-41 -24 -105 -58 -224 -58zM362 790c10 0 18 -8 18 -18
s-8 -18 -18 -18s-18 8 -18 18s8 18 18 18z" />
    <glyph glyph-name="gdotaccent" unicode="&#x121;" horiz-adv-x="549" 
d="M468 520v-524c0 -120 -107 -161 -204 -161c-87 0 -156 24 -194 47v18h12c32 -27 98 -49 180 -49c90 0 187 36 187 146v114c-43 -64 -113 -114 -210 -114c-95 0 -200 58 -200 259c0 207 118 269 223 269c89 0 148 -33 187 -81v50c0 21 3 26 14 26h5zM240 13
c95 0 160 49 209 123v286c-47 57 -102 87 -187 87c-95 0 -204 -51 -204 -252c0 -195 98 -244 182 -244zM276 649c10 0 18 -8 18 -18s-8 -18 -18 -18s-18 8 -18 18s8 18 18 18z" />
    <glyph glyph-name="Gcommaaccent" unicode="&#x122;" horiz-adv-x="678" 
d="M369 -3c-193 0 -319 117 -319 356c0 240 150 350 319 350c101 0 164 -28 204 -61v-17h-14c-36 36 -99 62 -190 62c-166 0 -297 -105 -297 -333s111 -339 297 -339c106 0 161 24 203 50v251h-167v17h188v-278c-41 -24 -105 -58 -224 -58zM332 -153v15c18 8 30 21 30 42
c0 9 -6 14 -11 17c-7 5 -10 10 -10 19c0 10 8 19 18 19c13 0 25 -9 25 -34c0 -47 -25 -69 -52 -78z" />
    <glyph glyph-name="gcommaaccent" unicode="&#x123;" horiz-adv-x="549" 
d="M468 520v-524c0 -120 -107 -161 -204 -161c-87 0 -156 24 -194 47v18h12c32 -27 98 -49 180 -49c90 0 187 36 187 146v114c-43 -64 -113 -114 -210 -114c-95 0 -200 58 -200 259c0 207 118 269 223 269c89 0 148 -33 187 -81v50c0 21 3 26 14 26h5zM240 13
c95 0 160 49 209 123v286c-47 57 -102 87 -187 87c-95 0 -204 -51 -204 -252c0 -195 98 -244 182 -244zM299 708v-15c-18 -8 -30 -21 -30 -42c0 -9 6 -14 11 -17c7 -5 10 -10 10 -19c0 -10 -8 -19 -18 -19c-13 0 -25 9 -25 34c0 47 25 69 52 78z" />
    <glyph glyph-name="Hcircumflex" unicode="&#x124;" horiz-adv-x="687" 
d="M117 0h-20v700h20v-329h453v329h20v-700h-20v354h-453v-354zM245 739v10l88 92h20l88 -92v-10h-13l-85 85l-85 -85h-13z" />
    <glyph glyph-name="hcircumflex" unicode="&#x125;" horiz-adv-x="551" 
d="M100 677v-261c63 55 148 109 241 109c73 0 134 -26 134 -130v-395h-19v392c0 96 -52 117 -116 117c-87 0 -174 -51 -240 -111v-398h-19v700h5c11 0 14 -3 14 -23zM178 723v10l92 112h20l92 -112v-10h-13l-89 105l-89 -105h-13z" />
    <glyph glyph-name="Hbar" unicode="&#x126;" horiz-adv-x="687" 
d="M9 526v16h88v158h20v-158h453v158h20v-158h88v-16h-88v-526h-20v354h-453v-354h-20v526h-88zM117 371h453v155h-453v-155z" />
    <glyph glyph-name="hbar" unicode="&#x127;" horiz-adv-x="551" 
d="M100 677v-64h160v-16h-160v-181c63 55 148 109 241 109c73 0 134 -26 134 -130v-395h-19v392c0 96 -52 117 -116 117c-87 0 -174 -51 -240 -111v-398h-19v597h-73v16h73v87h5c11 0 14 -3 14 -23z" />
    <glyph glyph-name="Imacron" unicode="&#x12a;" horiz-adv-x="218" 
d="M119 0h-20v700h20v-700zM1 772v15h216v-15h-216z" />
    <glyph glyph-name="imacron" unicode="&#x12b;" horiz-adv-x="187" 
d="M103 0h-19v520h5c12 0 14 -3 14 -26v-494zM15 621v15h156v-15h-156z" />
    <glyph glyph-name="Iogonek" unicode="&#x12e;" horiz-adv-x="218" 
d="M103 -164c-44 0 -73 27 -73 66c0 42 35 74 69 98v700h20v-702c-43 -32 -70 -57 -70 -96c0 -31 19 -49 56 -49h36v-14c-10 -2 -22 -3 -38 -3z" />
    <glyph glyph-name="iogonek" unicode="&#x12f;" horiz-adv-x="187" 
d="M88 -164c-44 0 -73 27 -73 66c0 42 35 74 69 98v520h5c12 0 14 -3 14 -26v-496c-43 -33 -69 -58 -69 -96c0 -31 19 -49 56 -49h36v-14c-10 -2 -22 -3 -38 -3zM94 613c-10 0 -18 8 -18 18s8 18 18 18s18 -8 18 -18s-8 -18 -18 -18z" />
    <glyph glyph-name="Idotaccent" unicode="&#x130;" horiz-adv-x="218" 
d="M119 0h-20v700h20v-700zM109 790c10 0 18 -8 18 -18s-8 -18 -18 -18s-18 8 -18 18s8 18 18 18z" />
    <glyph glyph-name="dotlessi" unicode="&#x131;" horiz-adv-x="187" 
d="M103 0h-19v520h5c12 0 14 -3 14 -26v-494z" />
    <glyph glyph-name="Jcircumflex" unicode="&#x134;" horiz-adv-x="400" 
d="M149 -4c-60 0 -101 17 -129 37v18h12c20 -20 53 -38 117 -38c96 0 138 49 138 136v551h20v-551c0 -97 -50 -153 -158 -153zM200 739v10l88 92h20l88 -92v-10h-13l-85 85l-85 -85h-13z" />
    <glyph glyph-name="jcircumflex" unicode="&#x135;" horiz-adv-x="187" 
d="M103 494v-566c0 -57 -30 -91 -89 -91c-11 0 -20 1 -28 2v14h28c48 0 70 28 70 75v592h5c12 0 14 -3 14 -26zM-9 578v10l92 112h20l92 -112v-10h-13l-89 105l-89 -105h-13z" />
    <glyph glyph-name="Kcommaaccent" unicode="&#x136;" horiz-adv-x="607" 
d="M97 0v700h20v-435l407 435h12v-12l-259 -277l283 -398v-13h-14l-282 397l-147 -157v-240h-20zM268 -153v15c18 8 30 21 30 42c0 9 -6 14 -11 17c-7 5 -10 10 -10 19c0 10 8 19 18 19c13 0 25 -9 25 -34c0 -47 -25 -69 -52 -78z" />
    <glyph glyph-name="kcommaaccent" unicode="&#x137;" horiz-adv-x="453" 
d="M100 677v-484l297 327h14v-12l-194 -210l207 -287v-11h-14l-205 284l-105 -116v-168h-19v700h5c11 0 14 -3 14 -23zM198 -153v15c18 8 30 21 30 42c0 9 -6 14 -11 17c-7 5 -10 10 -10 19c0 10 8 19 18 19c13 0 25 -9 25 -34c0 -47 -25 -69 -52 -78z" />
    <glyph glyph-name="Lacute" unicode="&#x139;" horiz-adv-x="546" 
d="M507 0h-410v700h20v-683h390v-17zM102 739h-13v9l66 93h16v-11z" />
    <glyph glyph-name="lacute" unicode="&#x13a;" horiz-adv-x="185" 
d="M83 700h5c11 0 14 -3 14 -23v-677h-19v700zM82 723v9l89 113h16v-11l-92 -111h-13z" />
    <glyph glyph-name="Lcommaaccent" unicode="&#x13b;" horiz-adv-x="546" 
d="M507 0h-410v700h20v-683h390v-17zM280 -153v15c18 8 30 21 30 42c0 9 -6 14 -11 17c-7 5 -10 10 -10 19c0 10 8 19 18 19c13 0 25 -9 25 -34c0 -47 -25 -69 -52 -78z" />
    <glyph glyph-name="lcommaaccent" unicode="&#x13c;" horiz-adv-x="185" 
d="M83 700h5c11 0 14 -3 14 -23v-677h-19v700zM62 -153v15c18 8 30 21 30 42c0 9 -6 14 -11 17c-7 5 -10 10 -10 19c0 10 8 19 18 19c13 0 25 -9 25 -34c0 -47 -25 -69 -52 -78z" />
    <glyph glyph-name="Lcaron" unicode="&#x13d;" horiz-adv-x="546" 
d="M323 578l10 122h20v-11l-17 -111h-13zM507 0h-410v700h20v-683h390v-17z" />
    <glyph glyph-name="lcaron" unicode="&#x13e;" horiz-adv-x="185" 
d="M165 578l10 122h19v-11l-16 -111h-13zM83 700h5c11 0 14 -3 14 -23v-677h-19v700z" />
    <glyph glyph-name="Lslash" unicode="&#x141;" horiz-adv-x="546" 
d="M507 0h-410v280l-90 -40v18l90 40v402h20v-393l256 113v-18l-256 -113v-272h390v-17z" />
    <glyph glyph-name="lslash" unicode="&#x142;" horiz-adv-x="185" 
d="M83 700h5c11 0 14 -3 14 -23v-247l82 60v-20l-82 -60v-410h-19v396l-81 -58v20l81 58v284z" />
    <glyph glyph-name="Nacute" unicode="&#x143;" horiz-adv-x="680" 
d="M97 0v700h30l436 -666h1v666h19v-700h-20l-446 681h-1v-681h-19zM346 739h-13v9l66 93h16v-11z" />
    <glyph glyph-name="nacute" unicode="&#x144;" horiz-adv-x="551" 
d="M100 494v-78c63 55 148 109 241 109c73 0 134 -26 134 -130v-395h-19v392c0 96 -52 117 -116 117c-87 0 -174 -51 -240 -111v-398h-19v520h5c12 0 14 -3 14 -26zM264 578v9l89 113h16v-11l-92 -111h-13z" />
    <glyph glyph-name="Ncommaaccent" unicode="&#x145;" horiz-adv-x="680" 
d="M97 0v700h30l436 -666h1v666h19v-700h-20l-446 681h-1v-681h-19zM291 -153v15c18 8 30 21 30 42c0 9 -6 14 -11 17c-7 5 -10 10 -10 19c0 10 8 19 18 19c13 0 25 -9 25 -34c0 -47 -25 -69 -52 -78z" />
    <glyph glyph-name="ncommaaccent" unicode="&#x146;" horiz-adv-x="551" 
d="M100 494v-78c63 55 148 109 241 109c73 0 134 -26 134 -130v-395h-19v392c0 96 -52 117 -116 117c-87 0 -174 -51 -240 -111v-398h-19v520h5c12 0 14 -3 14 -26zM252 -153v15c18 8 30 21 30 42c0 9 -6 14 -11 17c-7 5 -10 10 -10 19c0 10 8 19 18 19c13 0 25 -9 25 -34
c0 -47 -25 -69 -52 -78z" />
    <glyph glyph-name="Ncaron" unicode="&#x147;" horiz-adv-x="680" 
d="M97 0v700h30l436 -666h1v666h19v-700h-20l-446 681h-1v-681h-19zM450 841v-10l-88 -92h-20l-88 92v10h13l85 -85l85 85h13z" />
    <glyph glyph-name="ncaron" unicode="&#x148;" horiz-adv-x="551" 
d="M100 494v-78c63 55 148 109 241 109c73 0 134 -26 134 -130v-395h-19v392c0 96 -52 117 -116 117c-87 0 -174 -51 -240 -111v-398h-19v520h5c12 0 14 -3 14 -26zM384 700v-10l-92 -112h-20l-92 112v10h13l89 -105l89 105h13z" />
    <glyph glyph-name="Omacron" unicode="&#x14c;" horiz-adv-x="713" 
d="M357 -3c-168 0 -307 123 -307 353s139 353 307 353s306 -123 306 -353s-138 -353 -306 -353zM357 14c160 0 286 117 286 336c0 218 -126 336 -286 336c-161 0 -287 -118 -287 -336c0 -219 126 -336 287 -336zM248 772v15h216v-15h-216z" />
    <glyph glyph-name="omacron" unicode="&#x14d;" horiz-adv-x="546" 
d="M273 -3c-143 0 -234 100 -234 264c0 163 91 264 234 264c144 0 234 -101 234 -264c0 -164 -90 -264 -234 -264zM273 13c135 0 215 93 215 248c0 154 -80 248 -215 248c-134 0 -215 -94 -215 -248c0 -155 81 -248 215 -248zM170 621v15h206v-15h-206z" />
    <glyph glyph-name="Ohungarumlaut" unicode="&#x150;" horiz-adv-x="713" 
d="M357 -3c-168 0 -307 123 -307 353s139 353 307 353s306 -123 306 -353s-138 -353 -306 -353zM357 14c160 0 286 117 286 336c0 218 -126 336 -286 336c-161 0 -287 -118 -287 -336c0 -219 126 -336 287 -336zM296 739v7l45 95h18v-11l-48 -91h-15zM399 739v7l45 95h18
v-11l-48 -91h-15z" />
    <glyph glyph-name="ohungarumlaut" unicode="&#x151;" horiz-adv-x="546" 
d="M273 -3c-143 0 -234 100 -234 264c0 163 91 264 234 264c144 0 234 -101 234 -264c0 -164 -90 -264 -234 -264zM273 13c135 0 215 93 215 248c0 154 -80 248 -215 248c-134 0 -215 -94 -215 -248c0 -155 81 -248 215 -248zM211 578v7l55 115h18v-11l-58 -111h-15z
M314 578v7l55 115h18v-11l-58 -111h-15z" />
    <glyph glyph-name="OE" unicode="&#x152;" horiz-adv-x="969" 
d="M397 0c-230 0 -347 98 -347 350s117 350 347 350h520v-17h-374v-311h283v-17h-283v-338h388v-17h-534zM523 683h-126c-221 0 -327 -92 -327 -333s106 -333 327 -333h126v666z" />
    <glyph glyph-name="oe" unicode="&#x153;" horiz-adv-x="950" 
d="M504 259c0 -153 71 -246 216 -246c87 0 143 28 169 56h14v-13c-35 -30 -94 -59 -183 -59c-127 0 -203 67 -226 183c-24 -116 -103 -183 -221 -183c-143 0 -234 100 -234 264c0 163 91 264 234 264c119 0 198 -70 222 -187c24 116 104 187 211 187c118 0 206 -70 206 -239
c0 -7 -1 -13 -1 -13h-407v-14zM273 13c135 0 212 93 212 248c0 154 -77 248 -212 248c-134 0 -215 -94 -215 -248c0 -155 81 -248 215 -248zM706 510c-113 0 -191 -83 -201 -221h388c-2 158 -78 221 -187 221z" />
    <glyph glyph-name="Racute" unicode="&#x154;" horiz-adv-x="592" 
d="M525 0l-181 339c-24 -3 -50 -5 -77 -5h-150v-334h-20v700h170c132 0 230 -42 230 -184c0 -105 -50 -154 -132 -173l176 -330v-13h-16zM117 682v-330h150c128 0 210 29 210 164c0 133 -91 166 -210 166h-150zM283 739h-13v9l66 93h16v-11z" />
    <glyph glyph-name="racute" unicode="&#x155;" horiz-adv-x="334" 
d="M100 494v-83c42 57 99 112 179 112c14 0 22 -2 22 -2v-16s-9 1 -22 1c-76 0 -133 -54 -179 -118v-388h-19v520h5c12 0 14 -3 14 -26zM168 578v9l89 113h16v-11l-92 -111h-13z" />
    <glyph glyph-name="Rcommaaccent" unicode="&#x156;" horiz-adv-x="592" 
d="M525 0l-181 339c-24 -3 -50 -5 -77 -5h-150v-334h-20v700h170c132 0 230 -42 230 -184c0 -105 -50 -154 -132 -173l176 -330v-13h-16zM117 682v-330h150c128 0 210 29 210 164c0 133 -91 166 -210 166h-150zM271 -153v15c18 8 30 21 30 42c0 9 -6 14 -11 17
c-7 5 -10 10 -10 19c0 10 8 19 18 19c13 0 25 -9 25 -34c0 -47 -25 -69 -52 -78z" />
    <glyph glyph-name="rcommaaccent" unicode="&#x157;" horiz-adv-x="334" 
d="M100 494v-83c42 57 99 112 179 112c14 0 22 -2 22 -2v-16s-9 1 -22 1c-76 0 -133 -54 -179 -118v-388h-19v520h5c12 0 14 -3 14 -26zM62 -153v15c18 8 30 21 30 42c0 9 -6 14 -11 17c-7 5 -10 10 -10 19c0 10 8 19 18 19c13 0 25 -9 25 -34c0 -47 -25 -69 -52 -78z" />
    <glyph glyph-name="Rcaron" unicode="&#x158;" horiz-adv-x="592" 
d="M525 0l-181 339c-24 -3 -50 -5 -77 -5h-150v-334h-20v700h170c132 0 230 -42 230 -184c0 -105 -50 -154 -132 -173l176 -330v-13h-16zM117 682v-330h150c128 0 210 29 210 164c0 133 -91 166 -210 166h-150zM387 841v-10l-88 -92h-20l-88 92v10h13l85 -85l85 85h13z" />
    <glyph glyph-name="rcaron" unicode="&#x159;" horiz-adv-x="334" 
d="M100 494v-83c42 57 99 112 179 112c14 0 22 -2 22 -2v-16s-9 1 -22 1c-76 0 -133 -54 -179 -118v-388h-19v520h5c12 0 14 -3 14 -26zM288 700v-10l-92 -112h-20l-92 112v10h13l89 -105l89 105h13z" />
    <glyph glyph-name="Sacute" unicode="&#x15a;" horiz-adv-x="511" 
d="M245 -3c-114 0 -169 31 -218 64v18h14c38 -33 92 -65 203 -65c114 0 199 48 199 175c0 119 -101 140 -207 170c-97 28 -191 55 -191 177c0 91 63 167 199 167c91 0 138 -24 188 -61v-17h-14c-38 35 -85 61 -174 61c-126 0 -180 -68 -180 -149c0 -113 83 -134 179 -161
c113 -32 220 -60 220 -187c0 -137 -95 -192 -218 -192zM245 739h-13v9l66 93h16v-11z" />
    <glyph glyph-name="sacute" unicode="&#x15b;" horiz-adv-x="418" 
d="M202 -3c-90 0 -141 30 -168 53v15h14c25 -25 68 -52 154 -52c108 0 160 42 160 133c0 73 -53 99 -155 117c-96 17 -160 41 -160 130c0 83 61 132 165 132c69 0 124 -24 148 -45v-14h-14c-28 24 -67 43 -134 43c-97 0 -146 -45 -146 -116c0 -76 53 -97 149 -114
c103 -18 166 -48 166 -132c0 -99 -56 -150 -179 -150zM193 578v9l89 113h16v-11l-92 -111h-13z" />
    <glyph glyph-name="Scircumflex" unicode="&#x15c;" horiz-adv-x="511" 
d="M245 -3c-114 0 -169 31 -218 64v18h14c38 -33 92 -65 203 -65c114 0 199 48 199 175c0 119 -101 140 -207 170c-97 28 -191 55 -191 177c0 91 63 167 199 167c91 0 138 -24 188 -61v-17h-14c-38 35 -85 61 -174 61c-126 0 -180 -68 -180 -149c0 -113 83 -134 179 -161
c113 -32 220 -60 220 -187c0 -137 -95 -192 -218 -192zM153 739v10l88 92h20l88 -92v-10h-13l-85 85l-85 -85h-13z" />
    <glyph glyph-name="scircumflex" unicode="&#x15d;" horiz-adv-x="418" 
d="M202 -3c-90 0 -141 30 -168 53v15h14c25 -25 68 -52 154 -52c108 0 160 42 160 133c0 73 -53 99 -155 117c-96 17 -160 41 -160 130c0 83 61 132 165 132c69 0 124 -24 148 -45v-14h-14c-28 24 -67 43 -134 43c-97 0 -146 -45 -146 -116c0 -76 53 -97 149 -114
c103 -18 166 -48 166 -132c0 -99 -56 -150 -179 -150zM109 578v10l92 112h20l92 -112v-10h-13l-89 105l-89 -105h-13z" />
    <glyph glyph-name="Scedilla" unicode="&#x15e;" horiz-adv-x="511" 
d="M245 -3v-47c55 0 81 -21 81 -62c0 -39 -31 -61 -72 -61c-32 0 -53 9 -69 21v15h13c8 -13 30 -20 56 -20c35 0 54 17 54 45c0 35 -19 46 -69 46h-11v63c-103 3 -155 32 -201 64v18h14c38 -33 92 -65 203 -65c114 0 199 48 199 175c0 119 -101 140 -207 170
c-97 28 -191 55 -191 177c0 91 63 167 199 167c91 0 138 -24 188 -61v-17h-14c-38 35 -85 61 -174 61c-126 0 -180 -68 -180 -149c0 -113 83 -134 179 -161c113 -32 220 -60 220 -187c0 -137 -95 -192 -218 -192z" />
    <glyph glyph-name="scedilla" unicode="&#x15f;" horiz-adv-x="418" 
d="M381 147c0 -98 -55 -149 -175 -150v-47c55 0 81 -21 81 -62c0 -39 -31 -61 -72 -61c-32 0 -53 9 -69 21v15h13c8 -13 30 -20 56 -20c35 0 54 17 54 45c0 35 -19 46 -69 46h-11v63c-82 3 -130 31 -155 53v15h14c25 -25 68 -52 154 -52c108 0 160 42 160 133
c0 73 -53 99 -155 117c-96 17 -160 41 -160 130c0 83 61 132 165 132c69 0 124 -24 148 -45v-14h-14c-28 24 -67 43 -134 43c-97 0 -146 -45 -146 -116c0 -76 53 -97 149 -114c103 -18 166 -48 166 -132z" />
    <glyph glyph-name="Scaron" unicode="&#x160;" horiz-adv-x="511" 
d="M245 -3c-114 0 -169 31 -218 64v18h14c38 -33 92 -65 203 -65c114 0 199 48 199 175c0 119 -101 140 -207 170c-97 28 -191 55 -191 177c0 91 63 167 199 167c91 0 138 -24 188 -61v-17h-14c-38 35 -85 61 -174 61c-126 0 -180 -68 -180 -149c0 -113 83 -134 179 -161
c113 -32 220 -60 220 -187c0 -137 -95 -192 -218 -192zM349 841v-10l-88 -92h-20l-88 92v10h13l85 -85l85 85h13z" />
    <glyph glyph-name="scaron" unicode="&#x161;" horiz-adv-x="418" 
d="M202 -3c-90 0 -141 30 -168 53v15h14c25 -25 68 -52 154 -52c108 0 160 42 160 133c0 73 -53 99 -155 117c-96 17 -160 41 -160 130c0 83 61 132 165 132c69 0 124 -24 148 -45v-14h-14c-28 24 -67 43 -134 43c-97 0 -146 -45 -146 -116c0 -76 53 -97 149 -114
c103 -18 166 -48 166 -132c0 -99 -56 -150 -179 -150zM313 700v-10l-92 -112h-20l-92 112v10h13l89 -105l89 105h13z" />
    <glyph glyph-name="Tcommaaccent" unicode="&#x162;" horiz-adv-x="554" 
d="M287 0h-20v683h-241v17h502v-17h-241v-683zM247 -153v15c18 8 30 21 30 42c0 9 -6 14 -11 17c-7 5 -10 10 -10 19c0 10 8 19 18 19c13 0 25 -9 25 -34c0 -47 -25 -69 -52 -78z" />
    <glyph glyph-name="tcommaaccent" unicode="&#x163;" horiz-adv-x="291" 
d="M18 504v16h70v146h19v-146h150v-16h-150v-399c0 -65 31 -90 96 -90h68v-14c-15 -2 -45 -4 -72 -4c-74 0 -111 33 -111 107v400h-70zM146 -153v15c18 8 30 21 30 42c0 9 -6 14 -11 17c-7 5 -10 10 -10 19c0 10 8 19 18 19c13 0 25 -9 25 -34c0 -47 -25 -69 -52 -78z" />
    <glyph glyph-name="Tcaron" unicode="&#x164;" horiz-adv-x="554" 
d="M287 0h-20v683h-241v17h502v-17h-241v-683zM375 841v-10l-88 -92h-20l-88 92v10h13l85 -85l85 85h13z" />
    <glyph glyph-name="tcaron" unicode="&#x165;" horiz-adv-x="291" 
d="M18 504v16h70v146h19v-146h150v-16h-150v-399c0 -65 31 -90 96 -90h68v-14c-15 -2 -45 -4 -72 -4c-74 0 -111 33 -111 107v400h-70zM178 578l10 122h19v-11l-16 -111h-13z" />
    <glyph glyph-name="Umacron" unicode="&#x16a;" horiz-adv-x="678" 
d="M342 14c119 0 224 43 224 207v479h20v-478c0 -174 -117 -225 -245 -225s-249 51 -249 225v478h20v-479c0 -160 108 -207 230 -207zM231 772v15h216v-15h-216z" />
    <glyph glyph-name="umacron" unicode="&#x16b;" horiz-adv-x="543" 
d="M443 23v74c-62 -54 -147 -102 -235 -102c-73 0 -132 24 -132 128v397h19v-394c0 -96 50 -115 114 -115c83 0 167 47 234 104v405h19v-520h-5c-11 0 -14 5 -14 23zM167 621v15h206v-15h-206z" />
    <glyph glyph-name="Ubreve" unicode="&#x16c;" horiz-adv-x="678" 
d="M342 14c119 0 224 43 224 207v479h20v-478c0 -174 -117 -225 -245 -225s-249 51 -249 225v478h20v-479c0 -160 108 -207 230 -207zM339 741c-57 0 -95 33 -106 82v11h18c5 -50 38 -77 88 -77s83 27 88 77h18v-11c-11 -49 -49 -82 -106 -82z" />
    <glyph glyph-name="ubreve" unicode="&#x16d;" horiz-adv-x="543" 
d="M443 23v74c-62 -54 -147 -102 -235 -102c-73 0 -132 24 -132 128v397h19v-394c0 -96 50 -115 114 -115c83 0 167 47 234 104v405h19v-520h-5c-11 0 -14 5 -14 23zM270 580c-57 0 -95 38 -106 90v11h18c5 -53 38 -85 88 -85s83 32 88 85h18v-11c-11 -52 -49 -90 -106 -90z
" />
    <glyph glyph-name="Uring" unicode="&#x16e;" horiz-adv-x="678" 
d="M342 14c119 0 224 43 224 207v479h20v-478c0 -174 -117 -225 -245 -225s-249 51 -249 225v478h20v-479c0 -160 108 -207 230 -207zM343 702c-42 0 -80 30 -80 79c0 47 38 79 80 79c41 0 79 -32 79 -79c0 -49 -38 -79 -79 -79zM281 781c0 -39 27 -63 62 -63
c34 0 61 24 61 63c0 38 -27 63 -61 63c-35 0 -62 -25 -62 -63z" />
    <glyph glyph-name="uring" unicode="&#x16f;" horiz-adv-x="543" 
d="M443 23v74c-62 -54 -147 -102 -235 -102c-73 0 -132 24 -132 128v397h19v-394c0 -96 50 -115 114 -115c83 0 167 47 234 104v405h19v-520h-5c-11 0 -14 5 -14 23zM271 578c-42 0 -80 30 -80 79c0 47 38 79 80 79c41 0 79 -32 79 -79c0 -49 -38 -79 -79 -79zM209 657
c0 -39 27 -63 62 -63c34 0 61 24 61 63c0 38 -27 63 -61 63c-35 0 -62 -25 -62 -63z" />
    <glyph glyph-name="Uhungarumlaut" unicode="&#x170;" horiz-adv-x="678" 
d="M342 14c119 0 224 43 224 207v479h20v-478c0 -174 -117 -225 -245 -225s-249 51 -249 225v478h20v-479c0 -160 108 -207 230 -207zM279 739v7l45 95h18v-11l-48 -91h-15zM382 739v7l45 95h18v-11l-48 -91h-15z" />
    <glyph glyph-name="uhungarumlaut" unicode="&#x171;" horiz-adv-x="543" 
d="M443 23v74c-62 -54 -147 -102 -235 -102c-73 0 -132 24 -132 128v397h19v-394c0 -96 50 -115 114 -115c83 0 167 47 234 104v405h19v-520h-5c-11 0 -14 5 -14 23zM311 578v7l55 115h18v-11l-58 -111h-15zM208 578v7l55 115h18v-11l-58 -111h-15z" />
    <glyph glyph-name="Uogonek" unicode="&#x172;" horiz-adv-x="678" 
d="M369 -164c-44 0 -73 27 -73 66c0 41 35 76 69 96c-7 -1 -17 -1 -24 -1c-128 0 -249 51 -249 225v478h20v-479c0 -160 108 -207 230 -207c119 0 224 43 224 207v479h20v-478c0 -129 -66 -192 -151 -214c-46 -12 -63 -16 -87 -40c-18 -18 -33 -37 -33 -66
c0 -31 19 -49 56 -49h36v-14c-10 -2 -22 -3 -38 -3z" />
    <glyph glyph-name="uogonek" unicode="&#x173;" horiz-adv-x="543" 
d="M448 -164c-44 0 -73 27 -73 66c0 42 34 74 68 98v97c-62 -54 -147 -102 -235 -102c-73 0 -132 24 -132 128v397h19v-394c0 -96 50 -115 114 -115c83 0 167 47 234 104v405h19v-523c-41 -31 -68 -57 -68 -95c0 -31 19 -49 56 -49h36v-14c-10 -2 -22 -3 -38 -3z" />
    <glyph glyph-name="Ydieresis" unicode="&#x178;" horiz-adv-x="539" 
d="M279 0h-20v299l-229 388v13h14l225 -383h1l226 383h13v-13l-230 -388v-299zM207 754c-10 0 -18 8 -18 18s8 18 18 18s18 -8 18 -18s-8 -18 -18 -18zM333 754c-10 0 -18 8 -18 18s8 18 18 18s18 -8 18 -18s-8 -18 -18 -18z" />
    <glyph glyph-name="Zacute" unicode="&#x179;" horiz-adv-x="592" 
d="M51 0v18l468 664v1h-441v17h463v-19l-468 -663v-1h453v-17h-475zM313 739h-13v9l66 93h16v-11z" />
    <glyph glyph-name="zacute" unicode="&#x17a;" horiz-adv-x="454" 
d="M31 0v15l370 490h-347v15h369v-16l-370 -489h364v-15h-386zM224 578v9l89 113h16v-11l-92 -111h-13z" />
    <glyph glyph-name="Zdotaccent" unicode="&#x17b;" horiz-adv-x="592" 
d="M51 0v18l468 664v1h-441v17h463v-19l-468 -663v-1h453v-17h-475zM319 790c10 0 18 -8 18 -18s-8 -18 -18 -18s-18 8 -18 18s8 18 18 18z" />
    <glyph glyph-name="zdotaccent" unicode="&#x17c;" horiz-adv-x="454" 
d="M31 0v15l370 490h-347v15h369v-16l-370 -489h364v-15h-386zM242 649c10 0 18 -8 18 -18s-8 -18 -18 -18s-18 8 -18 18s8 18 18 18z" />
    <glyph glyph-name="Zcaron" unicode="&#x17d;" horiz-adv-x="592" 
d="M51 0v18l468 664v1h-441v17h463v-19l-468 -663v-1h453v-17h-475zM417 841v-10l-88 -92h-20l-88 92v10h13l85 -85l85 85h13z" />
    <glyph glyph-name="zcaron" unicode="&#x17e;" horiz-adv-x="454" 
d="M31 0v15l370 490h-347v15h369v-16l-370 -489h364v-15h-386zM344 700v-10l-92 -112h-20l-92 112v10h13l89 -105l89 105h13z" />
    <glyph glyph-name="florin" unicode="&#x192;" horiz-adv-x="321" 
d="M41 420h78l19 155c11 94 61 125 128 125c17 0 35 -2 47 -5v-13h-45c-60 0 -101 -25 -111 -109l-19 -153h125v-16h-127l-59 -482h-19l59 482h-76v16z" />
    <glyph glyph-name="Scommaaccent" unicode="&#x218;" horiz-adv-x="511" 
d="M245 -3c-114 0 -169 31 -218 64v18h14c38 -33 92 -65 203 -65c114 0 199 48 199 175c0 119 -101 140 -207 170c-97 28 -191 55 -191 177c0 91 63 167 199 167c91 0 138 -24 188 -61v-17h-14c-38 35 -85 61 -174 61c-126 0 -180 -68 -180 -149c0 -113 83 -134 179 -161
c113 -32 220 -60 220 -187c0 -137 -95 -192 -218 -192zM221 -153v15c18 8 30 21 30 42c0 9 -6 14 -11 17c-7 5 -10 10 -10 19c0 10 8 19 18 19c13 0 25 -9 25 -34c0 -47 -25 -69 -52 -78z" />
    <glyph glyph-name="scommaaccent" unicode="&#x219;" horiz-adv-x="418" 
d="M202 -3c-90 0 -141 30 -168 53v15h14c25 -25 68 -52 154 -52c108 0 160 42 160 133c0 73 -53 99 -155 117c-96 17 -160 41 -160 130c0 83 61 132 165 132c69 0 124 -24 148 -45v-14h-14c-28 24 -67 43 -134 43c-97 0 -146 -45 -146 -116c0 -76 53 -97 149 -114
c103 -18 166 -48 166 -132c0 -99 -56 -150 -179 -150zM181 -153v15c18 8 30 21 30 42c0 9 -6 14 -11 17c-7 5 -10 10 -10 19c0 10 8 19 18 19c13 0 25 -9 25 -34c0 -47 -25 -69 -52 -78z" />
    <glyph glyph-name="uni0237" unicode="&#x237;" horiz-adv-x="187" 
d="M103 494v-566c0 -57 -30 -91 -89 -91c-11 0 -20 1 -28 2v14h28c48 0 70 28 70 75v592h5c12 0 14 -3 14 -26z" />
    <glyph glyph-name="circumflex" unicode="&#x2c6;" 
d="M103 578v10l92 112h20l92 -112v-10h-13l-89 105l-89 -105h-13z" />
    <glyph glyph-name="caron" unicode="&#x2c7;" 
d="M307 700v-10l-92 -112h-20l-92 112v10h13l89 -105l89 105h13z" />
    <glyph glyph-name="breve" unicode="&#x2d8;" 
d="M205 580c-57 0 -95 38 -106 90v11h18c5 -53 38 -85 88 -85s83 32 88 85h18v-11c-11 -52 -49 -90 -106 -90z" />
    <glyph glyph-name="dotaccent" unicode="&#x2d9;" 
d="M205 649c10 0 18 -8 18 -18s-8 -18 -18 -18s-18 8 -18 18s8 18 18 18z" />
    <glyph glyph-name="ring" unicode="&#x2da;" 
d="M205 578c-42 0 -80 30 -80 79c0 47 38 79 80 79c41 0 79 -32 79 -79c0 -49 -38 -79 -79 -79zM143 657c0 -39 27 -63 62 -63c34 0 61 24 61 63c0 38 -27 63 -61 63c-35 0 -62 -25 -62 -63z" />
    <glyph glyph-name="ogonek" unicode="&#x2db;" horiz-adv-x="394" 
d="M223 -164c-44 0 -73 27 -73 66c0 42 35 74 69 98h22c-44 -33 -72 -59 -72 -98c0 -31 19 -49 56 -49h36v-14c-10 -2 -22 -3 -38 -3z" />
    <glyph glyph-name="tilde" unicode="&#x2dc;" 
d="M89 596v10c6 24 26 53 61 53c40 0 75 -42 110 -42c24 0 41 18 45 45h16v-10c-7 -26 -26 -52 -61 -52c-40 0 -75 42 -110 42c-24 0 -41 -18 -45 -46h-16z" />
    <glyph glyph-name="hungarumlaut" unicode="&#x2dd;" 
d="M151 578v7l55 115h18v-11l-58 -111h-15zM254 578v7l55 115h18v-11l-58 -111h-15z" />
    <glyph glyph-name="endash" unicode="&#x2013;" horiz-adv-x="381" 
d="M25 281v17h331v-17h-331z" />
    <glyph glyph-name="emdash" unicode="&#x2014;" horiz-adv-x="631" 
d="M25 281v17h581v-17h-581z" />
    <glyph glyph-name="quoteleft" unicode="&#x2018;" horiz-adv-x="110" 
d="M83 687c-18 -8 -30 -21 -30 -42c0 -9 6 -14 11 -17c7 -5 10 -10 10 -19c0 -10 -8 -19 -18 -19c-13 0 -25 9 -25 34c0 47 25 69 52 78v-15z" />
    <glyph glyph-name="quoteright" unicode="&#x2019;" horiz-adv-x="110" 
d="M27 591v15c18 8 30 21 30 42c0 9 -6 14 -11 17c-7 5 -10 10 -10 19c0 10 8 19 18 19c13 0 25 -9 25 -34c0 -47 -25 -69 -52 -78z" />
    <glyph glyph-name="quotesinglbase" unicode="&#x201a;" horiz-adv-x="110" 
d="M27 -46c18 8 30 21 30 42c0 9 -6 14 -11 17c-7 5 -10 10 -10 19c0 10 8 19 18 19c13 0 25 -9 25 -34c0 -47 -25 -69 -52 -78v15z" />
    <glyph glyph-name="quotedblleft" unicode="&#x201c;" horiz-adv-x="195" 
d="M83 687c-18 -8 -30 -21 -30 -42c0 -9 6 -14 11 -17c7 -5 10 -10 10 -19c0 -10 -8 -19 -18 -19c-13 0 -25 9 -25 34c0 47 25 69 52 78v-15zM168 687c-18 -8 -30 -21 -30 -42c0 -9 6 -14 11 -17c7 -5 10 -10 10 -19c0 -10 -8 -19 -18 -19c-13 0 -25 9 -25 34
c0 47 25 69 52 78v-15z" />
    <glyph glyph-name="quotedblright" unicode="&#x201d;" horiz-adv-x="195" 
d="M112 591v15c18 8 30 21 30 42c0 9 -6 14 -11 17c-7 5 -10 10 -10 19c0 10 8 19 18 19c13 0 25 -9 25 -34c0 -47 -25 -69 -52 -78zM27 591v15c18 8 30 21 30 42c0 9 -6 14 -11 17c-7 5 -10 10 -10 19c0 10 8 19 18 19c13 0 25 -9 25 -34c0 -47 -25 -69 -52 -78z" />
    <glyph glyph-name="quotedblbase" unicode="&#x201e;" horiz-adv-x="195" 
d="M112 -46c18 8 30 21 30 42c0 9 -6 14 -11 17c-7 5 -10 10 -10 19c0 10 8 19 18 19c13 0 25 -9 25 -34c0 -47 -25 -69 -52 -78v15zM27 -46c18 8 30 21 30 42c0 9 -6 14 -11 17c-7 5 -10 10 -10 19c0 10 8 19 18 19c13 0 25 -9 25 -34c0 -47 -25 -69 -52 -78v15z" />
    <glyph glyph-name="dagger" unicode="&#x2020;" 
d="M212 -49h-14l-3 345v79l3 97l-107 -2h-56v18h56l107 -2l-3 84v130h20v-130l-3 -84l107 2h56v-18h-56l-107 2l3 -97v-79z" />
    <glyph glyph-name="daggerdbl" unicode="&#x2021;" horiz-adv-x="411" 
d="M195 385l3 97l-107 -2h-56v18h56l107 -2l-3 84v120h20v-120l-3 -84l107 2h56v-18h-56l-107 2l3 -97v-119l-3 -97l107 2h56v-18h-56l-107 2l3 -84v-120h-20v120l3 84l-107 -2h-56v18h56l107 -2l-3 97v119z" />
    <glyph glyph-name="bullet" unicode="&#x2022;" horiz-adv-x="274" 
d="M137 202c-61 0 -110 40 -110 107s49 109 110 109c62 0 110 -42 110 -109s-48 -107 -110 -107z" />
    <glyph glyph-name="ellipsis" unicode="&#x2026;" horiz-adv-x="350" 
d="M55 -3c-12 0 -21 9 -21 21s9 21 21 21s21 -9 21 -21s-9 -21 -21 -21zM295 -3c-12 0 -21 9 -21 21s9 21 21 21s21 -9 21 -21s-9 -21 -21 -21zM175 -3c-12 0 -21 9 -21 21s9 21 21 21s21 -9 21 -21s-9 -21 -21 -21z" />
    <glyph glyph-name="perthousand" unicode="&#x2030;" horiz-adv-x="1009" 
d="M183 382c74 0 125 55 125 152s-51 153 -125 153s-125 -56 -125 -153s51 -152 125 -152zM183 366c-78 0 -145 57 -145 168s67 169 145 169s145 -58 145 -169s-67 -168 -145 -168zM597 729l-492 -763h-21l492 763h21zM498 13c74 0 125 55 125 152s-51 153 -125 153
s-125 -56 -125 -153s51 -152 125 -152zM498 -3c-78 0 -145 57 -145 168s67 169 145 169s145 -58 145 -169s-67 -168 -145 -168zM826 13c74 0 125 55 125 152s-51 153 -125 153s-125 -56 -125 -153s51 -152 125 -152zM826 -3c-78 0 -145 57 -145 168s67 169 145 169
s145 -58 145 -169s-67 -168 -145 -168z" />
    <glyph glyph-name="guilsinglleft" unicode="&#x2039;" horiz-adv-x="259" 
d="M208 50l-169 202v14l169 203h12v-13l-161 -196v-2l161 -195v-13h-12z" />
    <glyph glyph-name="guilsinglright" unicode="&#x203a;" horiz-adv-x="259" 
d="M51 469l169 -202v-14l-169 -203h-12v13l161 196v2l-161 195v13h12z" />
    <glyph glyph-name="fraction" unicode="&#x2044;" horiz-adv-x="183" 
d="M348 729l-492 -763h-21l492 763h21z" />
    <glyph glyph-name="Euro" unicode="&#x20ac;" horiz-adv-x="598" 
d="M381 299h-266c15 -186 107 -285 244 -285c103 0 156 36 197 85h14v-15c-45 -48 -100 -87 -211 -87c-144 0 -248 104 -264 302h-76v16h75c-1 12 -1 25 -1 38s0 26 1 39h-75v16h76c19 196 137 295 270 295c105 0 150 -34 190 -74v-17h-14c-36 44 -79 74 -175 74
c-129 0 -234 -93 -251 -278h285l-3 -16h-283c-1 -13 -1 -25 -1 -38c0 -14 0 -27 1 -39h269z" />
    <glyph glyph-name="trademark" unicode="&#x2122;" horiz-adv-x="581" 
d="M130 431h-20v252h-88v17h198v-17h-90v-252zM272 431v269h32l91 -239h1l92 239h31v-269h-20v246h-1l-95 -246h-16l-95 246h-1v-246h-19z" />
    <glyph glyph-name="onethird" unicode="&#x2153;" horiz-adv-x="641" 
d="M127 334h-19v346l-86 -49h-11v12l103 57h13v-366zM539 729l-492 -763h-21l492 763h21zM497 -2c-49 0 -89 16 -112 37v15h13c18 -19 50 -36 99 -36c67 0 102 33 102 90c0 62 -52 80 -99 80h-34v15h31c53 0 92 27 92 79c0 50 -31 74 -88 74c-43 0 -74 -16 -92 -34h-12v16
c23 18 60 34 104 34c66 0 107 -32 107 -90c0 -50 -32 -76 -71 -85v-2c46 -5 81 -35 81 -87c0 -68 -46 -106 -121 -106z" />
    <glyph glyph-name="twothirds" unicode="&#x2154;" horiz-adv-x="714" 
d="M257 350v-16h-233v16l116 108c70 65 97 95 97 146c0 53 -33 82 -90 82c-49 0 -79 -20 -99 -43h-12v14c22 22 59 45 111 45c65 0 109 -36 109 -98c0 -54 -33 -92 -107 -160l-103 -94h211zM625 729l-492 -763h-21l492 763h21zM570 -2c-49 0 -89 16 -112 37v15h13
c18 -19 50 -36 99 -36c67 0 102 33 102 90c0 62 -52 80 -99 80h-34v15h31c53 0 92 27 92 79c0 50 -31 74 -88 74c-43 0 -74 -16 -92 -34h-12v16c23 18 60 34 104 34c66 0 107 -32 107 -90c0 -50 -32 -76 -71 -85v-2c46 -5 81 -35 81 -87c0 -68 -46 -106 -121 -106z" />
    <glyph glyph-name="oneeighth" unicode="&#x215b;" horiz-adv-x="658" 
d="M127 334h-19v346l-86 -49h-11v12l103 57h13v-366zM545 729l-492 -763h-21l492 763h21zM504 -2c-82 0 -130 42 -130 101c0 51 34 85 85 96v2c-40 8 -66 41 -66 82c0 52 43 89 111 89c66 0 111 -37 111 -89c0 -41 -29 -71 -65 -82v-2c50 -9 85 -45 85 -96
c0 -59 -49 -101 -131 -101zM504 203c61 0 93 32 93 76c0 43 -31 73 -93 73s-93 -30 -93 -73c0 -44 31 -76 93 -76zM504 14c75 0 112 35 112 85c0 51 -38 89 -112 89c-75 0 -111 -38 -111 -89c0 -49 36 -85 111 -85z" />
    <glyph glyph-name="threeeighths" unicode="&#x215c;" horiz-adv-x="676" 
d="M124 332c-49 0 -89 16 -112 37v15h13c18 -19 50 -36 99 -36c67 0 102 33 102 90c0 62 -52 80 -99 80h-34v15h31c53 0 92 27 92 79c0 50 -31 74 -88 74c-43 0 -74 -16 -92 -34h-12v16c23 18 60 34 104 34c66 0 107 -32 107 -90c0 -50 -32 -76 -71 -85v-2
c46 -5 81 -35 81 -87c0 -68 -46 -106 -121 -106zM581 729l-492 -763h-21l492 763h21zM522 -2c-82 0 -130 42 -130 101c0 51 34 85 85 96v2c-40 8 -66 41 -66 82c0 52 43 89 111 89c66 0 111 -37 111 -89c0 -41 -29 -71 -65 -82v-2c50 -9 85 -45 85 -96
c0 -59 -49 -101 -131 -101zM522 203c61 0 93 32 93 76c0 43 -31 73 -93 73s-93 -30 -93 -73c0 -44 31 -76 93 -76zM522 14c75 0 112 35 112 85c0 51 -38 89 -112 89c-75 0 -111 -38 -111 -89c0 -49 36 -85 111 -85z" />
    <glyph glyph-name="fiveeighths" unicode="&#x215d;" horiz-adv-x="676" 
d="M250 456c0 -73 -56 -124 -132 -124c-52 0 -85 19 -106 38v15h13c16 -19 47 -37 93 -37c65 0 113 42 113 108c0 64 -40 96 -92 96c-43 0 -74 -21 -93 -40h-17v188h195v-16h-178v-154h1c14 15 45 37 92 37c61 0 111 -36 111 -111zM581 729l-492 -763h-21l492 763h21z
M522 -2c-82 0 -130 42 -130 101c0 51 34 85 85 96v2c-40 8 -66 41 -66 82c0 52 43 89 111 89c66 0 111 -37 111 -89c0 -41 -29 -71 -65 -82v-2c50 -9 85 -45 85 -96c0 -59 -49 -101 -131 -101zM522 203c61 0 93 32 93 76c0 43 -31 73 -93 73s-93 -30 -93 -73
c0 -44 31 -76 93 -76zM522 14c75 0 112 35 112 85c0 51 -38 89 -112 89c-75 0 -111 -38 -111 -89c0 -49 36 -85 111 -85z" />
    <glyph glyph-name="seveneighths" unicode="&#x215e;" horiz-adv-x="658" 
d="M73 334v11l167 337v2h-221v16h240v-17l-170 -349h-16zM538 729l-492 -763h-21l492 763h21zM504 -2c-82 0 -130 42 -130 101c0 51 34 85 85 96v2c-40 8 -66 41 -66 82c0 52 43 89 111 89c66 0 111 -37 111 -89c0 -41 -29 -71 -65 -82v-2c50 -9 85 -45 85 -96
c0 -59 -49 -101 -131 -101zM504 203c61 0 93 32 93 76c0 43 -31 73 -93 73s-93 -30 -93 -73c0 -44 31 -76 93 -76zM504 14c75 0 112 35 112 85c0 51 -38 89 -112 89c-75 0 -111 -38 -111 -89c0 -49 36 -85 111 -85z" />
    <glyph glyph-name="minus" unicode="&#x2212;" horiz-adv-x="456" 
d="M415 337h-374v17h374v-17z" />
    <glyph glyph-name="fi" unicode="&#xfb01;" horiz-adv-x="446" 
d="M18 504v16h70v55c0 94 48 125 108 125c20 0 32 -2 44 -5v-13h-44c-52 0 -89 -24 -89 -107v-55h133v-16h-133v-504h-19v504h-70zM362 0h-19v520h5c12 0 14 -3 14 -26v-494zM353 613c-10 0 -18 8 -18 18s8 18 18 18s18 -8 18 -18s-8 -18 -18 -18z" />
    <glyph glyph-name="fl" unicode="&#xfb02;" horiz-adv-x="444" 
d="M18 504v16h70v55c0 94 48 125 108 125c20 0 32 -2 44 -5v-13h-44c-52 0 -89 -24 -89 -107v-55h133v-16h-133v-504h-19v504h-70zM342 700h5c11 0 14 -3 14 -23v-677h-19v700z" />
    <glyph glyph-name="space_uni0326" 
d="M173 -153v15c18 8 30 21 30 42c0 9 -6 14 -11 17c-7 5 -10 10 -10 19c0 10 8 19 18 19c13 0 25 -9 25 -34c0 -47 -25 -69 -52 -78z" />
    <glyph glyph-name="zero.numerator" horiz-adv-x="356" 
d="M178 332c-83 0 -153 62 -153 185s70 185 153 185c82 0 153 -62 153 -185s-71 -185 -153 -185zM178 348c75 0 134 54 134 169c0 114 -59 169 -134 169c-77 0 -134 -55 -134 -169c0 -115 57 -169 134 -169z" />
    <glyph glyph-name="one.numerator" horiz-adv-x="198" 
d="M127 334h-19v346l-86 -49h-11v12l103 57h13v-366z" />
    <glyph glyph-name="two.numerator" horiz-adv-x="280" 
d="M257 350v-16h-233v16l116 108c70 65 97 95 97 146c0 53 -33 82 -90 82c-49 0 -79 -20 -99 -43h-12v14c22 22 59 45 111 45c65 0 109 -36 109 -98c0 -54 -33 -92 -107 -160l-103 -94h211z" />
    <glyph glyph-name="three.numerator" horiz-adv-x="268" 
d="M124 332c-49 0 -89 16 -112 37v15h13c18 -19 50 -36 99 -36c67 0 102 33 102 90c0 62 -52 80 -99 80h-34v15h31c53 0 92 27 92 79c0 50 -31 74 -88 74c-43 0 -74 -16 -92 -34h-12v16c23 18 60 34 104 34c66 0 107 -32 107 -90c0 -50 -32 -76 -71 -85v-2
c46 -5 81 -35 81 -87c0 -68 -46 -106 -121 -106z" />
    <glyph glyph-name="four.numerator" horiz-adv-x="319" 
d="M234 334h-18v97h-195v16l198 253h15v-255h60v-14h-60v-97zM42 447v-2h174v223h-2z" />
    <glyph glyph-name="five.numerator" horiz-adv-x="273" 
d="M250 456c0 -73 -56 -124 -132 -124c-52 0 -85 19 -106 38v15h13c16 -19 47 -37 93 -37c65 0 113 42 113 108c0 64 -40 96 -92 96c-43 0 -74 -21 -93 -40h-17v188h195v-16h-178v-154h1c14 15 45 37 92 37c61 0 111 -36 111 -111z" />
    <glyph glyph-name="six.numerator" horiz-adv-x="308" 
d="M44 509v-8c27 33 75 54 124 54c59 0 118 -28 118 -107c0 -74 -53 -116 -122 -116c-73 0 -139 52 -139 177s77 193 169 193c32 0 59 -9 75 -19v-15h-13c-12 9 -32 18 -63 18c-85 0 -149 -59 -149 -177zM165 540c-47 0 -95 -23 -120 -57c7 -99 60 -135 119 -135
c60 0 103 34 103 100c0 70 -49 92 -102 92z" />
    <glyph glyph-name="seven.numerator" horiz-adv-x="276" 
d="M73 334v11l167 337v2h-221v16h240v-17l-170 -349h-16z" />
    <glyph glyph-name="eight.numerator" horiz-adv-x="307" 
d="M153 332c-82 0 -130 42 -130 101c0 51 34 85 85 96v2c-40 8 -66 41 -66 82c0 52 43 89 111 89c66 0 111 -37 111 -89c0 -41 -29 -71 -65 -82v-2c50 -9 85 -45 85 -96c0 -59 -49 -101 -131 -101zM153 537c61 0 93 32 93 76c0 43 -31 73 -93 73s-93 -30 -93 -73
c0 -44 31 -76 93 -76zM153 348c75 0 112 35 112 85c0 51 -38 89 -112 89c-75 0 -111 -38 -111 -89c0 -49 36 -85 111 -85z" />
    <glyph glyph-name="nine.numerator" horiz-adv-x="308" 
d="M114 348c97 0 150 59 150 177v7c-27 -33 -76 -53 -124 -53c-59 0 -118 29 -118 109c0 73 53 114 122 114c73 0 139 -52 139 -177s-62 -193 -169 -193c-31 0 -62 9 -78 20v15h13c12 -9 37 -19 65 -19zM143 494c46 0 94 22 120 56c-8 100 -61 136 -119 136
c-60 0 -103 -32 -103 -98c0 -71 49 -94 102 -94z" />
    <glyph glyph-name="zero.denominator" horiz-adv-x="356" 
d="M178 -2c-83 0 -153 62 -153 185s70 185 153 185c82 0 153 -62 153 -185s-71 -185 -153 -185zM178 14c75 0 134 54 134 169c0 114 -59 169 -134 169c-77 0 -134 -55 -134 -169c0 -115 57 -169 134 -169z" />
    <glyph glyph-name="one.denominator" horiz-adv-x="198" 
d="M127 0h-19v346l-86 -49h-11v12l103 57h13v-366z" />
    <glyph glyph-name="two.denominator" horiz-adv-x="280" 
d="M257 16v-16h-233v16l116 108c70 65 97 95 97 146c0 53 -33 82 -90 82c-49 0 -79 -20 -99 -43h-12v14c22 22 59 45 111 45c65 0 109 -36 109 -98c0 -54 -33 -92 -107 -160l-103 -94h211z" />
    <glyph glyph-name="three.denominator" horiz-adv-x="268" 
d="M124 -2c-49 0 -89 16 -112 37v15h13c18 -19 50 -36 99 -36c67 0 102 33 102 90c0 62 -52 80 -99 80h-34v15h31c53 0 92 27 92 79c0 50 -31 74 -88 74c-43 0 -74 -16 -92 -34h-12v16c23 18 60 34 104 34c66 0 107 -32 107 -90c0 -50 -32 -76 -71 -85v-2
c46 -5 81 -35 81 -87c0 -68 -46 -106 -121 -106z" />
    <glyph glyph-name="four.denominator" horiz-adv-x="319" 
d="M234 0h-18v97h-195v16l198 253h15v-255h60v-14h-60v-97zM42 113v-2h174v223h-2z" />
    <glyph glyph-name="five.denominator" horiz-adv-x="273" 
d="M250 122c0 -73 -56 -124 -132 -124c-52 0 -85 19 -106 38v15h13c16 -19 47 -37 93 -37c65 0 113 42 113 108c0 64 -40 96 -92 96c-43 0 -74 -21 -93 -40h-17v188h195v-16h-178v-154h1c14 15 45 37 92 37c61 0 111 -36 111 -111z" />
    <glyph glyph-name="six.denominator" horiz-adv-x="308" 
d="M44 175v-8c27 33 75 54 124 54c59 0 118 -28 118 -107c0 -74 -53 -116 -122 -116c-73 0 -139 52 -139 177s77 193 169 193c32 0 59 -9 75 -19v-15h-13c-12 9 -32 18 -63 18c-85 0 -149 -59 -149 -177zM165 206c-47 0 -95 -23 -120 -57c7 -99 60 -135 119 -135
c60 0 103 34 103 100c0 70 -49 92 -102 92z" />
    <glyph glyph-name="seven.denominator" horiz-adv-x="276" 
d="M73 0v11l167 337v2h-221v16h240v-17l-170 -349h-16z" />
    <glyph glyph-name="eight.denominator" horiz-adv-x="307" 
d="M153 -2c-82 0 -130 42 -130 101c0 51 34 85 85 96v2c-40 8 -66 41 -66 82c0 52 43 89 111 89c66 0 111 -37 111 -89c0 -41 -29 -71 -65 -82v-2c50 -9 85 -45 85 -96c0 -59 -49 -101 -131 -101zM153 203c61 0 93 32 93 76c0 43 -31 73 -93 73s-93 -30 -93 -73
c0 -44 31 -76 93 -76zM153 14c75 0 112 35 112 85c0 51 -38 89 -112 89c-75 0 -111 -38 -111 -89c0 -49 36 -85 111 -85z" />
    <glyph glyph-name="nine.denominator" horiz-adv-x="308" 
d="M114 14c97 0 150 59 150 177v7c-27 -33 -76 -53 -124 -53c-59 0 -118 29 -118 109c0 73 53 114 122 114c73 0 139 -52 139 -177s-62 -193 -169 -193c-31 0 -62 9 -78 20v15h13c12 -9 37 -19 65 -19zM143 160c46 0 94 22 120 56c-8 100 -61 136 -119 136
c-60 0 -103 -32 -103 -98c0 -71 49 -94 102 -94z" />
    <glyph glyph-name="Q.alt" horiz-adv-x="721" 
d="M679 -121c-53 88 -159 113 -324 118c-71 2 -131 20 -185 63c-71 57 -120 154 -120 290c0 230 139 353 307 353s306 -123 306 -353c0 -205 -110 -318 -229 -341v-1c134 -7 207 -42 264 -114v-15h-19zM357 14c160 0 286 117 286 336c0 218 -126 336 -286 336
c-161 0 -287 -118 -287 -336c0 -219 126 -336 287 -336z" />
    <glyph glyph-name="Q.alt1" horiz-adv-x="721" 
d="M357 -3c-168 0 -307 123 -307 353s139 353 307 353s306 -123 306 -353c0 -113 -33 -199 -87 -259l93 -78v-13h-14l-90 79c-55 -54 -128 -82 -208 -82zM357 14c76 0 144 25 195 76l-120 105v11h11l120 -103c50 56 80 138 80 247c0 218 -126 336 -286 336
c-161 0 -287 -118 -287 -336c0 -219 126 -336 287 -336z" />
    <glyph glyph-name="f.short" horiz-adv-x="253" 
d="M18 504v16h70v55c0 94 48 125 108 125c20 0 32 -2 44 -5v-13h-44c-52 0 -89 -24 -89 -107v-55h133v-16h-133v-504h-19v504h-70z" />
    <glyph glyph-name="f_f.short" horiz-adv-x="497" 
d="M107 504v-504h-19v504h-70v16h70v49c0 94 48 125 108 125c24 0 45 -2 57 -5v-13h-57c-52 0 -89 -24 -89 -107v-49h225v55c0 94 48 125 108 125c20 0 32 -2 44 -5v-13h-44c-52 0 -89 -24 -89 -107v-55h133v-16h-133v-504h-19v504h-225z" />
    <glyph glyph-name="less.cap" horiz-adv-x="459" 
d="M409 0l-373 342v17l373 341h11v-15l-363 -333v-2l363 -336v-14h-11z" />
    <glyph glyph-name="greater.cap" horiz-adv-x="459" 
d="M39 0v14l363 336v2l-363 333v15h11l373 -341v-17l-373 -342h-11z" />
    <glyph glyph-name="questiondown.cap" horiz-adv-x="431" 
d="M272 582c15 -122 -19 -162 -81 -230c-63 -63 -132 -113 -132 -200c0 -93 50 -139 148 -139c87 0 139 32 165 64h14v-16c-31 -28 -84 -64 -179 -64c-103 0 -168 46 -168 155c0 96 73 145 140 214c53 55 88 94 75 216h18zM260 703c12 0 21 -9 21 -21s-9 -21 -21 -21
s-21 9 -21 21s9 21 21 21z" />
    <glyph glyph-name="exclamdown.cap" horiz-adv-x="192" 
d="M104 582l3 -567v-15h-22v15l3 567h16zM96 703c12 0 21 -9 21 -21s-9 -21 -21 -21s-21 9 -21 21s9 21 21 21z" />
    <glyph glyph-name="bullet.cap" horiz-adv-x="290" 
d="M145 222c-61 0 -110 40 -110 107s49 109 110 109c62 0 110 -42 110 -109s-48 -107 -110 -107z" />
    <glyph glyph-name="hyphen.cap" horiz-adv-x="245" 
d="M32 329v17h181v-17h-181z" />
    <glyph glyph-name="endash.cap" horiz-adv-x="395" 
d="M32 329v16h331v-16h-331z" />
    <glyph glyph-name="emdash.cap" horiz-adv-x="645" 
d="M32 329v16h581v-16h-581z" />
    <glyph glyph-name="dagger.cap" 
d="M212 0h-14l-3 296v79l3 97l-107 -2h-56v18h56l107 -2l-3 84v130h20v-130l-3 -84l107 2h56v-18h-56l-107 2l3 -97v-79z" />
    <glyph glyph-name="daggerdbl.cap" horiz-adv-x="411" 
d="M195 385l3 97l-107 -2h-56v18h56l107 -2l-3 84v120h20v-120l-3 -84l107 2h56v-18h-56l-107 2l3 -97v-70l-3 -97l107 2h56v-18h-56l-107 2l3 -84v-120h-20v120l3 84l-107 -2h-56v18h56l107 -2l-3 97v70z" />
    <glyph glyph-name="quoteleft.cap" horiz-adv-x="492" 
d="M266 -3c-132 0 -234 90 -234 280c0 243 164 401 422 423v-17c-226 -25 -354 -156 -354 -272c0 -107 114 -69 195 -69c94 0 166 -58 166 -162c0 -91 -66 -183 -195 -183z" />
    <glyph glyph-name="quoteright.cap" horiz-adv-x="492" 
d="M226 703c132 0 234 -90 234 -280c0 -243 -164 -401 -422 -423v17c226 25 354 156 354 272c0 110 -114 69 -195 69c-94 0 -166 58 -166 162c0 91 66 183 195 183z" />
    <glyph glyph-name="quotedblleft.cap" horiz-adv-x="955" 
d="M266 -3c-132 0 -234 90 -234 280c0 243 164 401 422 423v-17c-226 -25 -354 -156 -354 -272c0 -107 114 -69 195 -69c94 0 166 -58 166 -162c0 -91 -66 -183 -195 -183zM729 -3c-132 0 -234 90 -234 280c0 243 164 401 422 423v-17c-226 -25 -354 -156 -354 -272
c0 -110 114 -69 195 -69c94 0 166 -58 166 -162c0 -91 -66 -183 -195 -183z" />
    <glyph glyph-name="quotedblright.cap" horiz-adv-x="955" 
d="M689 703c132 0 234 -90 234 -280c0 -243 -164 -401 -422 -423v17c226 25 354 156 354 272c0 107 -114 69 -195 69c-94 0 -166 58 -166 162c0 91 66 183 195 183zM226 703c132 0 234 -90 234 -280c0 -243 -164 -401 -422 -423v17c226 25 354 156 354 272
c0 110 -114 69 -195 69c-94 0 -166 58 -166 162c0 91 66 183 195 183z" />
    <glyph glyph-name="guillemotleft.cap" horiz-adv-x="591" 
d="M348 0l-312 342v17l312 341h11v-15l-303 -333v-2l303 -336v-14h-11zM540 0l-312 342v17l312 341h11v-15l-303 -333v-2l303 -336v-14h-11z" />
    <glyph glyph-name="guillemotright.cap" horiz-adv-x="591" 
d="M39 0v14l304 336v2l-304 333v15h12l312 -341v-17l-312 -342h-12zM231 0v14l304 336v2l-304 333v15h12l312 -341v-17l-312 -342h-12z" />
    <glyph glyph-name="at.cap" horiz-adv-x="844" 
d="M470 534c50 0 78 -14 96 -29c6 22 11 29 20 29h7l-63 -264c-12 -50 1 -84 58 -84c78 0 183 57 183 225c0 180 -135 286 -322 286c-175 0 -375 -131 -375 -365c0 -228 155 -329 343 -329c99 0 187 27 238 68h12v-15c-58 -41 -148 -69 -250 -69c-192 0 -362 105 -362 345
c0 244 209 381 394 381c192 0 340 -111 340 -302c0 -171 -110 -241 -201 -241c-65 0 -87 38 -78 89c-39 -44 -90 -92 -163 -92c-56 0 -105 33 -105 112c0 119 96 255 228 255zM348 184c70 0 118 47 166 101l48 204c-23 19 -50 28 -92 28c-117 0 -208 -120 -208 -238
c0 -69 37 -95 86 -95z" />
    <glyph glyph-name="paragraph.cap" horiz-adv-x="517" 
d="M289 0v352h-20c-132 0 -237 31 -237 174c0 145 101 174 235 174h153v-700h-19v684h-93v-684h-19z" />
    <glyph glyph-name="grave.cap" 
d="M221 723h-13l-69 91v11h16l66 -93v-9z" />
    <glyph glyph-name="dieresis.cap" 
d="M142 738c-10 0 -18 8 -18 18s8 18 18 18s18 -8 18 -18s-8 -18 -18 -18zM268 738c-10 0 -18 8 -18 18s8 18 18 18s18 -8 18 -18s-8 -18 -18 -18z" />
    <glyph glyph-name="macron.cap" 
d="M97 756v15h216v-15h-216z" />
    <glyph glyph-name="acute.cap" 
d="M203 723h-13v9l66 93h16v-11z" />
    <glyph glyph-name="circumflex.cap" 
d="M107 723v10l88 92h20l88 -92v-10h-13l-85 85l-85 -85h-13z" />
    <glyph glyph-name="caron.cap" 
d="M303 825v-10l-88 -92h-20l-88 92v10h13l85 -85l85 85h13z" />
    <glyph glyph-name="breve.cap" 
d="M205 725c-57 0 -95 33 -106 82v11h18c5 -50 38 -77 88 -77s83 27 88 77h18v-11c-11 -49 -49 -82 -106 -82z" />
    <glyph glyph-name="dotaccent.cap" 
d="M205 774c10 0 18 -8 18 -18s-8 -18 -18 -18s-18 8 -18 18s8 18 18 18z" />
    <glyph glyph-name="ring.cap" 
d="M205 728c-42 0 -80 30 -80 79c0 47 38 79 80 79c41 0 79 -32 79 -79c0 -49 -38 -79 -79 -79zM143 807c0 -39 27 -63 62 -63c34 0 61 24 61 63c0 38 -27 63 -61 63c-35 0 -62 -25 -62 -63z" />
    <glyph glyph-name="tilde.cap" 
d="M89 736v10c6 24 26 53 61 53c40 0 75 -42 110 -42c24 0 41 18 45 45h16v-10c-7 -26 -26 -52 -61 -52c-40 0 -75 42 -110 42c-24 0 -41 -18 -45 -46h-16z" />
    <glyph glyph-name="hungarumlaut.cap" 
d="M151 723v7l45 95h18v-11l-48 -91h-15zM254 723v7l45 95h18v-11l-48 -91h-15z" />
    </font>
</defs>
</svg>
